<?xml version="1.0" encoding="utf-8"?>
<!-- Generator: Adobe Illustrator 25.4.1, SVG Export Plug-In . SVG Version: 6.00 Build 0)  -->
<svg version="1.1" id="Layer_1" xmlns="http://www.w3.org/2000/svg" xmlns:xlink="http://www.w3.org/1999/xlink" x="0px" y="0px"
	 viewBox="0 0 1080 426.4" style="enable-background:new 0 0 1080 426.4;" xml:space="preserve">
<style type="text/css">
	.st0{display:none;fill:#FFFFFF;}
	.st1{fill:#F9F9F9;}
	.st2{fill:#FFD900;}
	.st3{fill:none;stroke:#FFFFFF;stroke-width:8.7808;stroke-miterlimit:1.2544;}
	.st4{opacity:0.15;fill:none;stroke:#FFFFFF;stroke-width:8.7808;stroke-miterlimit:1.2544;enable-background:new    ;}
</style>
<desc>Created with Fabric.js 5.2.4</desc>
<g id="_x34_5cbcce3-cca1-40e7-97b1-f335d4e44385" transform="matrix(1 0 0 1 540 540)">
	<rect x="-540" y="-864.6" vector-effect="non-scaling-stroke" class="st0" width="1080" height="1080"/>
</g>
<g id="_x34_15eadae-28e4-4774-9f73-f8004471793a" transform="matrix(1 0 0 1 540 540)">
</g>
<g transform="matrix(0.56 0 0 0.56 540 540)">
	<g>
		<g transform="matrix(1 0 0 1 0 -4)">
			<rect x="-964.3" y="-960.3" vector-effect="non-scaling-stroke" class="st1" width="1924" height="761.4"/>
		</g>
		<g transform="matrix(1 0 0 1 665 -4)">
			<path vector-effect="non-scaling-stroke" class="st2" d="M-296.4-910.2c0-27.7,22.6-50.1,50.5-50.1h545.2v761.4h-595.7
				L-296.4-910.2L-296.4-910.2z"/>
		</g>
		<g transform="matrix(1 0 0 1 -858 -4)">
			<circle vector-effect="non-scaling-stroke" class="st3" cx="-3.7" cy="-579.6" r="179.3"/>
		</g>
		<g transform="matrix(1 0 0 1 909 -43)">
			<circle vector-effect="non-scaling-stroke" class="st4" cx="-0.4" cy="-579.7" r="204.4"/>
		</g>
	</g>
</g>
</svg>
