<?xml version="1.0" encoding="utf-8"?>
<!-- Generator: Adobe Illustrator 25.4.1, SVG Export Plug-In . SVG Version: 6.00 Build 0)  -->
<svg version="1.1" id="Layer_1" xmlns="http://www.w3.org/2000/svg" xmlns:xlink="http://www.w3.org/1999/xlink" x="0px" y="0px"
	 viewBox="0 0 1080 1036.2" style="enable-background:new 0 0 1080 1036.2;" xml:space="preserve">
<style type="text/css">
	.st0{display:none;fill:#FFFFFF;}
	.st1{fill:#FFD900;}
	.st2{opacity:0.15;fill:none;stroke:#FFFFFF;stroke-width:36.96;stroke-miterlimit:5.28;enable-background:new    ;}
	.st3{opacity:0.15;fill:none;stroke:#FFFFFF;stroke-width:30.36;stroke-miterlimit:5.28;enable-background:new    ;}
	.st4{fill:none;stroke:#F9F9F9;stroke-width:26.4;stroke-miterlimit:5.28;}
</style>
<desc>Created with Fabric.js 5.2.4</desc>
<g id="_x37_e4dd9d8-47b0-411b-9919-f81c7687298f" transform="matrix(1 0 0 1 540 540)">
	<rect x="-540" y="-561.9" vector-effect="non-scaling-stroke" class="st0" width="1080" height="1080"/>
</g>
<g id="_x30_cc7b0bb-4491-454f-a173-111ebdc8a2c8" transform="matrix(1 0 0 1 540 540)">
</g>
<g transform="matrix(1.32 0 0 1.32 540 540)">
	<g>
		<g transform="matrix(1 0 0 1 195 0)">
			<path vector-effect="non-scaling-stroke" class="st1" d="M-215-359.1c0-27.6,22.4-50,50-50h380v785h-430V-359.1z"/>
		</g>
		<g transform="matrix(1 0 0 1 305.5 -225)">
			<circle vector-effect="non-scaling-stroke" class="st2" cx="0" cy="-16.6" r="130.5"/>
		</g>
		<g transform="matrix(1 0 0 1 208.5 149)">
			<circle vector-effect="non-scaling-stroke" class="st3" cx="0" cy="-16.6" r="78"/>
		</g>
		<g transform="matrix(1 0 0 1 -378.5 8)">
			<circle vector-effect="non-scaling-stroke" class="st4" cx="0" cy="-16.6" r="126.5"/>
		</g>
	</g>
</g>
</svg>
