<?xml version="1.0" encoding="UTF-8" standalone="no" ?>
<!DOCTYPE svg PUBLIC "-//W3C//DTD SVG 1.1//EN" "http://www.w3.org/Graphics/SVG/1.1/DTD/svg11.dtd">
<svg xmlns="http://www.w3.org/2000/svg" xmlns:xlink="http://www.w3.org/1999/xlink" version="1.1" width="1080" height="1080" viewBox="0 0 1080 1080" xml:space="preserve">
<desc>Created with Fabric.js 5.2.4</desc>
<defs>
</defs>
<g transform="matrix(1 0 0 1 540 540)" id="4ae31409-0b25-48d1-b9ea-e772a6148031"  >
<rect style="stroke: none; stroke-width: 1; stroke-dasharray: none; stroke-linecap: butt; stroke-dashoffset: 0; stroke-linejoin: miter; stroke-miterlimit: 4; fill: rgb(255,255,255); fill-rule: nonzero; opacity: 1; visibility: hidden;" vector-effect="non-scaling-stroke"  x="-540" y="-540" rx="0" ry="0" width="1080" height="1080" />
</g>
<g transform="matrix(1 0 0 1 540 540)" id="a001afa3-93b9-4e62-8275-f5a9a9e7dacb"  >
</g>
<g transform="matrix(7.83 0 0 7.83 540 540)"  >
<g style=""   >
		<g transform="matrix(1 0 0 1 48.26 -10.76)"  >
<circle style="stroke: none; stroke-width: 1; stroke-dasharray: none; stroke-linecap: butt; stroke-dashoffset: 0; stroke-linejoin: miter; stroke-miterlimit: 4; fill: rgb(164,231,237); fill-rule: nonzero; opacity: 1;" vector-effect="non-scaling-stroke"  cx="0" cy="0" r="20.7423" />
</g>
		<g transform="matrix(1 0 0 1 -42.33 -10.76)"  >
<circle style="stroke: none; stroke-width: 1; stroke-dasharray: none; stroke-linecap: butt; stroke-dashoffset: 0; stroke-linejoin: miter; stroke-miterlimit: 4; fill: rgb(115,195,244); fill-rule: nonzero; opacity: 1;" vector-effect="non-scaling-stroke"  cx="0" cy="0" r="20.7423" />
</g>
		<g transform="matrix(1 0 0 1 -47.13 17.18)"  >
<circle style="stroke: none; stroke-width: 1; stroke-dasharray: none; stroke-linecap: butt; stroke-dashoffset: 0; stroke-linejoin: miter; stroke-miterlimit: 4; fill: rgb(221,113,198); fill-rule: nonzero; opacity: 1;" vector-effect="non-scaling-stroke"  cx="0" cy="0" r="13.4049" />
</g>
		<g transform="matrix(1 0 0 1 -60.67 7.02)"  >
<circle style="stroke: none; stroke-width: 1; stroke-dasharray: none; stroke-linecap: butt; stroke-dashoffset: 0; stroke-linejoin: miter; stroke-miterlimit: 4; fill: rgb(255,217,0); fill-rule: nonzero; opacity: 1;" vector-effect="non-scaling-stroke"  cx="0" cy="0" r="8.32515" />
</g>
		<g transform="matrix(1 0 0 1 -38.72 4.86)"  >
<path style="stroke: none; stroke-width: 1; stroke-dasharray: none; stroke-linecap: butt; stroke-dashoffset: 0; stroke-linejoin: miter; stroke-miterlimit: 4; fill: rgb(77,133,176); fill-rule: nonzero; opacity: 1;" vector-effect="non-scaling-stroke"  transform=" translate(-30.28, -36.36)" d="M 23.8283 38.5862 C 23.9321 38.2878 24.0029 37.979 24.0396 37.6652 C 24.0396 37.6652 25.0693 38.6623 25.5756 40.5602 C 26.0819 42.4582 26.6628 43.1151 27.5497 43.9476 C 28.4365 44.7801 31.1219 46.4979 33.8958 49.6228 C 36.6122 52.6887 40.1627 56.8557 40.2916 57.0064 C 40.2046 56.8278 37.3624 51.0455 35.803 48.9596 C 34.2204 46.8411 33.0835 45.0597 31.5707 44.3468 C 30.058 43.6339 28.9211 41.8524 28.9304 39.0521 C 28.9397 36.2518 27.4596 35.073 26.5572 34.548 C 25.6548 34.0231 22.8514 31.5225 24.3269 27.7143 C 25.8024 23.906 33.2807 21.2656 35.1864 20.7578 C 37.0921 20.2499 41.3648 18.7993 41.3648 18.7993 C 41.3648 18.7993 36.9958 19.0012 34.2949 19.933 C 31.6375 20.8447 28.685 21.5856 28.5934 21.6089 C 28.64 21.5592 29.5113 20.5714 29.2752 19.5898 C 29.1821 19.1368 28.9239 18.7345 28.5507 18.4612 C 28.1776 18.188 27.7161 18.0632 27.2561 18.1112 C 26.5448 18.2106 26.3429 18.338 26.3118 18.3613 C 26.4003 18.265 27.8649 16.7817 28.7735 16.1869 C 29.6821 15.592 30.7289 14.5763 31.0768 13.9752 C 31.0768 13.9752 27.5357 15.9384 26.0835 16.7833 C 24.6313 17.6282 22.9974 18.9313 21.3061 21.1631 C 19.6147 23.395 19.318 25.7092 19.6551 27.9084 C 19.9921 30.1076 20.9892 31.5676 21.407 32.3721 C 21.8248 33.1766 22.2053 34.5977 21.6943 35.3448 C 21.1834 36.0919 19.3227 38.4697 19.2016 40.4841 C 19.0804 42.4985 19.9238 43.9523 20.9349 45.2569 C 21.9459 46.5616 24.0411 50.4258 25.5244 54.2496 C 27.0076 58.0734 27.896 58.7537 27.896 58.7537 C 27.896 58.7537 26.6706 50.7426 25.7216 48.503 C 24.7727 46.2634 23.5224 43.7007 23.2366 43.3776 C 22.9508 43.0546 22.0718 42.0621 22.6014 41.0044 C 23.131 39.9467 23.6358 39.1919 23.8283 38.5862 Z M 23.19 23.4556 C 23.19 23.4556 23.1372 21.7471 24.1219 20.8665 C 24.1219 20.8665 24.3471 22.2798 25.7325 22.5206 C 25.7356 22.5206 24.1297 23.3499 23.19 23.4556 Z" stroke-linecap="round" />
</g>
		<g transform="matrix(1 0 0 1 -34.53 -2.97)"  >
<path style="stroke: none; stroke-width: 1; stroke-dasharray: none; stroke-linecap: butt; stroke-dashoffset: 0; stroke-linejoin: miter; stroke-miterlimit: 4; fill: rgb(255,217,0); fill-rule: nonzero; opacity: 1;" vector-effect="non-scaling-stroke"  transform=" translate(-34.47, -28.53)" d="M 39.3147 33.3552 C 39.1175 31.5753 38.9109 29.8435 38.6935 28.2096 C 38.476 26.5757 38.2182 25.0273 37.9169 23.6372 L 37.8765 23.4524 L 35.9351 23.4524 L 35.8652 23.5518 C 35.3838 24.2367 34.8945 24.9496 34.4115 25.6749 C 33.9285 26.4002 33.4408 27.1628 32.95 27.9549 C 32.4592 28.747 31.9513 29.5873 31.4341 30.4617 C 30.9169 31.3361 30.3702 32.2758 29.8018 33.2573 L 29.5952 33.6099 L 32.0321 33.6099 L 32.0973 33.4856 C 32.3132 33.0818 32.5275 32.6873 32.7372 32.3115 L 33.2917 31.3159 L 36.895 31.3159 C 36.9245 31.6126 36.954 31.9154 36.9819 32.2276 C 37.0176 32.6128 37.0472 33.0042 37.0689 33.3894 L 37.0813 33.6099 L 39.338 33.6099 L 39.3147 33.3552 Z M 34.3292 29.4537 C 34.7376 28.7486 35.1306 28.0963 35.5018 27.5123 C 35.801 27.0381 36.0827 26.5959 36.3467 26.1859 C 36.415 26.6922 36.4787 27.1908 36.5346 27.6769 C 36.6061 28.2764 36.6651 28.8728 36.7117 29.4537 L 34.3292 29.4537 Z" stroke-linecap="round" />
</g>
		<g transform="matrix(1 0 0 1 -21.29 -2.96)"  >
<path style="stroke: none; stroke-width: 1; stroke-dasharray: none; stroke-linecap: butt; stroke-dashoffset: 0; stroke-linejoin: miter; stroke-miterlimit: 4; fill: rgb(255,217,0); fill-rule: nonzero; opacity: 1;" vector-effect="non-scaling-stroke"  transform=" translate(-47.71, -28.54)" d="M 51.7245 27.2964 C 52.0166 26.8424 52.1724 26.3142 52.1733 25.7743 C 52.1914 25.332 52.0649 24.8959 51.813 24.5318 C 51.5811 24.2169 51.2769 23.9623 50.9262 23.7894 C 50.5576 23.6093 50.162 23.4908 49.7551 23.4384 C 49.3466 23.3804 48.9345 23.3514 48.5219 23.3514 C 48.0467 23.3514 47.5667 23.3701 47.0961 23.4074 C 46.6386 23.4434 46.1841 23.5104 45.7356 23.6077 L 45.5943 23.6403 L 43.249 33.3971 L 43.4789 33.4484 C 43.9531 33.5529 44.4343 33.6224 44.9186 33.6565 C 45.4498 33.7 45.9624 33.7217 46.4407 33.7217 C 48.0933 33.7217 49.3808 33.4111 50.2692 32.7898 C 51.1855 32.15 51.6499 31.2367 51.6499 30.0672 C 51.6577 29.6237 51.5257 29.189 51.2725 28.8247 C 51.1055 28.5914 50.8945 28.393 50.6513 28.2407 C 51.0848 28.0243 51.4546 27.6989 51.7245 27.2964 Z M 48.758 27.3352 C 48.4979 27.3886 48.233 27.4151 47.9674 27.4144 L 46.916 27.4144 L 47.4285 25.2991 C 47.5279 25.2898 47.6428 25.2789 47.7733 25.2711 C 47.9814 25.2571 48.1958 25.254 48.4023 25.2509 C 48.8099 25.2324 49.2165 25.3057 49.592 25.4653 C 49.7473 25.5398 49.9446 25.6905 49.9446 26.1378 C 49.9521 26.3338 49.9018 26.5276 49.8001 26.6953 C 49.6936 26.8567 49.5531 26.9929 49.3886 27.0945 C 49.1944 27.2117 48.9809 27.2933 48.758 27.3352 Z M 49.1649 31.0193 C 49.0095 31.2278 48.8059 31.3956 48.5716 31.5085 C 48.3054 31.6333 48.0214 31.7161 47.7298 31.7539 C 47.421 31.7968 47.1097 31.8191 46.7979 31.8207 C 46.5432 31.8207 46.3071 31.8207 46.099 31.8005 L 45.8552 31.7819 L 46.4764 29.2378 L 47.8867 29.2378 C 48.4505 29.2378 48.8512 29.3341 49.0779 29.5252 C 49.1813 29.609 49.2641 29.7155 49.3198 29.8364 C 49.3756 29.9573 49.4028 30.0894 49.3994 30.2225 C 49.4105 30.5066 49.3281 30.7865 49.1649 31.0193 Z" stroke-linecap="round" />
</g>
		<g transform="matrix(1 0 0 1 -13.09 -1.77)"  >
<path style="stroke: none; stroke-width: 1; stroke-dasharray: none; stroke-linecap: butt; stroke-dashoffset: 0; stroke-linejoin: miter; stroke-miterlimit: 4; fill: rgb(255,217,0); fill-rule: nonzero; opacity: 1;" vector-effect="non-scaling-stroke"  transform=" translate(-55.91, -29.73)" d="M 58.7566 26.2636 C 58.3232 25.8598 57.7144 25.6547 56.9487 25.6547 C 56.2924 25.6457 55.6434 25.7932 55.0554 26.085 C 54.5036 26.3641 54.0143 26.7525 53.6172 27.2265 C 53.2178 27.7086 52.9098 28.2597 52.7087 28.8527 C 52.5017 29.4608 52.3968 30.0989 52.398 30.7413 C 52.3954 31.1382 52.4562 31.533 52.5782 31.9108 C 52.6976 32.289 52.9014 32.6352 53.1743 32.9231 C 53.4471 33.211 53.7818 33.4331 54.1531 33.5726 C 54.6098 33.7426 55.0947 33.8243 55.582 33.8134 C 56.0705 33.821 56.5582 33.7688 57.0341 33.6581 C 57.374 33.5813 57.7062 33.4737 58.0266 33.3366 L 58.1819 33.2667 L 57.994 31.42 L 57.7051 31.538 C 57.1313 31.7805 56.5155 31.9077 55.8926 31.9123 C 54.6858 31.9123 54.5227 31.3439 54.5165 30.9012 C 55.0477 30.8779 55.5788 30.8345 56.0976 30.7677 C 56.6596 30.7017 57.209 30.5541 57.7284 30.3297 C 58.199 30.1245 58.6127 29.8079 58.9336 29.4071 C 59.2706 28.9532 59.4407 28.397 59.4151 27.8322 C 59.4239 27.5389 59.3697 27.2471 59.2561 26.9764 C 59.1425 26.7058 58.9721 26.4627 58.7566 26.2636 Z M 56.6956 27.5061 C 56.958 27.5061 57.1413 27.5573 57.2298 27.6521 C 57.3195 27.7458 57.3701 27.8703 57.3712 28 C 57.3712 28.3758 57.1724 28.6414 56.7499 28.8371 C 56.3275 29.0328 55.6348 29.1586 54.7106 29.2083 C 54.7661 29.0342 54.8378 28.8657 54.925 28.7051 C 55.0494 28.4714 55.2063 28.2565 55.3909 28.0668 C 55.5644 27.8928 55.7687 27.7527 55.9935 27.6536 C 56.2146 27.5556 56.4538 27.5054 56.6956 27.5061 Z" stroke-linecap="round" />
</g>
		<g transform="matrix(1 0 0 1 -6.34 -2.81)"  >
<path style="stroke: none; stroke-width: 1; stroke-dasharray: none; stroke-linecap: butt; stroke-dashoffset: 0; stroke-linejoin: miter; stroke-miterlimit: 4; fill: rgb(255,217,0); fill-rule: nonzero; opacity: 1;" vector-effect="non-scaling-stroke"  transform=" translate(-62.66, -28.69)" d="M 61.9608 30.9075 C 61.9448 31.0196 61.9365 31.1327 61.936 31.246 C 61.9355 31.34 61.9454 31.4338 61.9655 31.5256 C 61.9781 31.5909 62.0082 31.6515 62.0525 31.7011 C 62.1121 31.7619 62.1857 31.8072 62.2668 31.8331 C 62.4174 31.8804 62.575 31.9015 62.7327 31.8953 C 62.9568 31.896 63.1799 31.8662 63.3959 31.8067 C 63.5961 31.7521 63.7926 31.6851 63.9846 31.6064 L 64.2766 31.4837 L 64.4474 33.3241 L 64.2921 33.3909 C 64.0181 33.5054 63.7356 33.5983 63.4472 33.6689 C 63.0525 33.7633 62.6477 33.8082 62.242 33.8025 C 61.38 33.8025 60.7447 33.6021 60.3564 33.2077 C 59.9682 32.8132 59.7725 32.2758 59.7725 31.6095 C 59.7729 31.3673 59.7901 31.1255 59.8237 30.8857 C 59.862 30.6218 59.9138 30.36 59.979 30.1014 L 61.4436 23.9354 L 63.7066 23.5767 L 63.1583 25.8349 L 65.5532 25.8349 L 65.1044 27.6987 L 62.7079 27.6987 L 62.0556 30.4198 C 62.0074 30.6124 61.9779 30.777 61.9608 30.9075 Z" stroke-linecap="round" />
</g>
		<g transform="matrix(1 0 0 1 -0.73 -2.81)"  >
<path style="stroke: none; stroke-width: 1; stroke-dasharray: none; stroke-linecap: butt; stroke-dashoffset: 0; stroke-linejoin: miter; stroke-miterlimit: 4; fill: rgb(255,217,0); fill-rule: nonzero; opacity: 1;" vector-effect="non-scaling-stroke"  transform=" translate(-68.27, -28.69)" d="M 67.5691 30.909 C 67.5538 31.0217 67.5455 31.1353 67.5442 31.2491 C 67.5446 31.3426 67.5544 31.4357 67.5737 31.5271 C 67.587 31.5922 67.6169 31.6527 67.6607 31.7026 C 67.7212 31.7631 67.7952 31.8083 67.8766 31.8347 C 68.0272 31.882 68.1848 31.903 68.3425 31.8968 C 68.5671 31.8976 68.7907 31.8678 69.0073 31.8082 C 69.2069 31.7536 69.403 31.6867 69.5944 31.6079 L 69.8879 31.4852 L 70.0587 33.3257 L 69.9034 33.394 C 69.6286 33.5071 69.3456 33.5995 69.057 33.6705 C 68.6628 33.7649 68.2585 33.8097 67.8533 33.804 C 66.9897 33.804 66.3561 33.6037 65.9678 33.2092 C 65.5795 32.8147 65.3822 32.2773 65.3838 31.611 C 65.3843 31.3689 65.4014 31.127 65.4351 30.8872 C 65.4733 30.6233 65.5251 30.3615 65.5904 30.1029 L 67.055 23.937 L 69.3163 23.5782 L 68.7681 25.8349 L 71.1615 25.8349 L 70.7142 27.6987 L 68.3161 27.6987 L 67.6591 30.4151 C 67.6172 30.6139 67.5861 30.7785 67.5691 30.909 Z" stroke-linecap="round" />
</g>
		<g transform="matrix(1 0 0 1 5.44 -1.76)"  >
<path style="stroke: none; stroke-width: 1; stroke-dasharray: none; stroke-linecap: butt; stroke-dashoffset: 0; stroke-linejoin: miter; stroke-miterlimit: 4; fill: rgb(255,217,0); fill-rule: nonzero; opacity: 1;" vector-effect="non-scaling-stroke"  transform=" translate(-74.44, -29.74)" d="M 77.2919 26.2682 C 77.069 26.0621 76.8041 25.9069 76.5153 25.8132 C 76.1827 25.7064 75.835 25.6539 75.4856 25.6579 C 74.8283 25.6488 74.1783 25.7963 73.5892 26.0881 C 73.037 26.3679 72.5476 26.7574 72.151 27.2327 C 71.751 27.7147 71.4425 28.2659 71.2409 28.8589 C 71.0333 29.4663 70.9283 30.104 70.9303 30.7459 C 70.9275 31.1434 70.9883 31.5387 71.1104 31.917 C 71.2305 32.2949 71.4345 32.6408 71.7072 32.9286 C 71.98 33.2164 72.3144 33.4387 72.6853 33.5789 C 73.1421 33.7488 73.627 33.8305 74.1142 33.8196 C 74.6027 33.8264 75.0903 33.7742 75.5664 33.6643 C 75.9059 33.5863 76.238 33.4787 76.5588 33.3428 L 76.7141 33.2729 L 76.52 31.4262 L 76.2311 31.5458 C 75.6576 31.7871 75.0424 31.9137 74.4202 31.9186 C 73.2134 31.9186 73.0503 31.3501 73.0441 30.9075 C 73.5768 30.8857 74.1064 30.8407 74.6236 30.7739 C 75.1855 30.7089 75.7348 30.5624 76.2544 30.339 C 76.728 30.135 77.1448 29.819 77.469 29.418 C 77.8061 28.9652 77.9772 28.4102 77.9535 27.8462 C 77.963 27.5511 77.9088 27.2574 77.7946 26.9852 C 77.6805 26.7129 77.509 26.4683 77.2919 26.2682 Z M 75.2309 27.5108 C 75.4918 27.5108 75.6766 27.562 75.7636 27.6661 C 75.8547 27.759 75.906 27.8838 75.9065 28.014 C 75.9065 28.3883 75.7077 28.6554 75.2853 28.8511 C 74.8628 29.0468 74.1701 29.1648 73.2382 29.213 C 73.2933 29.0392 73.3651 28.8712 73.4526 28.7113 C 73.5765 28.4769 73.7334 28.2614 73.9185 28.0714 C 74.0918 27.898 74.2955 27.7579 74.5196 27.6583 C 74.7435 27.5591 74.986 27.5088 75.2309 27.5108 Z" stroke-linecap="round" />
</g>
		<g transform="matrix(1 0 0 1 12.09 -1.84)"  >
<path style="stroke: none; stroke-width: 1; stroke-dasharray: none; stroke-linecap: butt; stroke-dashoffset: 0; stroke-linejoin: miter; stroke-miterlimit: 4; fill: rgb(255,217,0); fill-rule: nonzero; opacity: 1;" vector-effect="non-scaling-stroke"  transform=" translate(-81.09, -29.66)" d="M 84.3339 26.0353 L 83.6971 27.8711 L 83.4781 27.795 C 83.2935 27.7308 83.1039 27.682 82.9112 27.649 C 82.6733 27.6122 82.4328 27.5951 82.1921 27.5977 C 82.0337 27.5986 81.8755 27.6095 81.7184 27.6304 C 81.6229 27.642 81.528 27.6586 81.4342 27.6801 L 80.0162 33.6255 L 77.8418 33.6255 L 79.6217 26.2325 L 79.7444 26.1906 C 80.1704 26.0506 80.6039 25.9345 81.0428 25.8427 C 81.5454 25.7373 82.0576 25.6853 82.5711 25.6874 C 82.6938 25.6874 82.8274 25.6951 82.9749 25.7091 C 83.1225 25.7231 83.2576 25.7402 83.3958 25.7588 C 83.534 25.7775 83.6754 25.8054 83.7965 25.8334 C 83.9131 25.8601 84.027 25.8975 84.1367 25.9452 L 84.3339 26.0353 Z" stroke-linecap="round" />
</g>
		<g transform="matrix(1 0 0 1 -24.83 9.96)"  >
<path style="stroke: none; stroke-width: 1; stroke-dasharray: none; stroke-linecap: butt; stroke-dashoffset: 0; stroke-linejoin: miter; stroke-miterlimit: 4; fill: rgb(255,217,0); fill-rule: nonzero; opacity: 1;" vector-effect="non-scaling-stroke"  transform=" translate(-44.17, -41.46)" d="M 50.7178 36.373 L 50.5857 36.6945 C 49.8511 38.4899 49.0978 40.2107 48.3461 41.8198 C 47.5944 43.4288 46.793 44.9711 45.9481 46.4248 L 45.8813 46.5413 L 43.8327 46.5413 L 43.8032 46.3425 C 43.7286 45.8393 43.6572 45.3439 43.5873 44.8593 C 43.5174 44.3747 43.4522 43.873 43.3932 43.3776 C 43.3341 42.8821 43.2767 42.3665 43.2254 41.8478 C 43.199 41.576 43.1711 41.2917 43.1462 40.9997 C 42.688 41.8369 42.233 42.6538 41.7888 43.4366 C 41.2203 44.4399 40.6084 45.4557 39.9716 46.4357 L 39.9033 46.5413 L 37.8485 46.5413 L 37.8298 46.3301 C 37.7568 45.5209 37.704 44.7024 37.6745 43.8979 C 37.645 43.0934 37.6279 42.2655 37.6279 41.4269 C 37.6279 39.8986 37.6807 38.2755 37.7832 36.5997 L 37.7972 36.3807 L 40.0275 36.3807 L 40.012 36.6292 C 39.9561 37.5254 39.9079 38.4215 39.8722 39.2897 C 39.8365 40.1579 39.8163 41.0603 39.8163 41.958 L 39.8163 42.9722 C 39.8163 43.0499 39.8163 43.1275 39.8163 43.2067 C 39.9716 42.9365 40.1425 42.66 40.3055 42.3789 C 40.6162 41.8555 40.9175 41.3197 41.2157 40.7823 C 41.5139 40.2449 41.8059 39.6951 42.0901 39.1639 C 42.3743 38.6328 42.643 38.1063 42.8946 37.6108 L 42.9598 37.4834 L 44.8624 37.4834 L 44.8733 37.704 C 44.9013 38.2072 44.937 38.7384 44.9774 39.2789 C 45.0177 39.8194 45.069 40.3754 45.1234 40.9174 C 45.1777 41.4595 45.2352 41.9953 45.2911 42.5172 C 45.3159 42.7563 45.3424 42.9831 45.3672 43.2145 C 45.5225 42.9132 45.6778 42.5933 45.8331 42.2687 C 46.1127 41.6769 46.3954 41.0603 46.6718 40.4344 C 46.9483 39.8085 47.2294 39.1453 47.4965 38.4883 C 47.7637 37.8313 48.0262 37.1728 48.2731 36.5267 L 48.3306 36.3714 L 50.7178 36.373 Z" stroke-linecap="round" />
</g>
		<g transform="matrix(1 0 0 1 -15.98 11.15)"  >
<path style="stroke: none; stroke-width: 1; stroke-dasharray: none; stroke-linecap: butt; stroke-dashoffset: 0; stroke-linejoin: miter; stroke-miterlimit: 4; fill: rgb(255,217,0); fill-rule: nonzero; opacity: 1;" vector-effect="non-scaling-stroke"  transform=" translate(-53.02, -42.65)" d="M 55.871 39.1779 C 55.4361 38.7741 54.8273 38.5691 54.0616 38.5691 C 53.4042 38.5606 52.7542 38.7086 52.1652 39.0008 C 51.6135 39.2801 51.1246 39.669 50.7286 40.144 C 50.3285 40.6256 50.0205 41.1769 49.82 41.7701 C 49.6124 42.3775 49.5074 43.0152 49.5094 43.6571 C 49.5066 44.0546 49.5674 44.45 49.6895 44.8282 C 49.809 45.2061 50.0125 45.552 50.2847 45.8401 C 50.5569 46.1282 50.8908 46.3509 51.2613 46.4916 C 51.7184 46.6603 52.2031 46.7414 52.6902 46.7308 C 53.1798 46.7376 53.6684 46.6855 54.1455 46.5755 C 54.4853 46.4978 54.8175 46.3897 55.1379 46.2524 L 55.2932 46.1841 L 55.1038 44.3359 L 54.8149 44.4555 C 54.2411 44.6979 53.6252 44.8251 53.0024 44.8298 C 51.7956 44.8298 51.6325 44.2613 51.6263 43.8187 C 52.1575 43.7954 52.6886 43.7503 53.2058 43.6851 C 53.7681 43.6182 54.3179 43.4707 54.8382 43.2471 C 55.3116 43.043 55.728 42.7263 56.0512 42.3246 C 56.3892 41.8694 56.5593 41.3113 56.5326 40.745 C 56.5407 40.4517 56.4859 40.16 56.3717 39.8897 C 56.2576 39.6194 56.0869 39.3767 55.871 39.1779 Z M 53.81 40.4204 C 54.0709 40.4204 54.2557 40.4717 54.3443 40.5757 C 54.4344 40.6692 54.485 40.7938 54.4856 40.9236 C 54.4856 41.2979 54.2868 41.5651 53.8644 41.7608 C 53.4419 41.9565 52.7492 42.0823 51.8266 42.132 C 51.8815 41.9579 51.9528 41.7894 52.0394 41.6287 C 52.1635 41.3948 52.3204 41.1799 52.5054 40.9904 C 52.6792 40.8165 52.8834 40.6759 53.108 40.5757 C 53.3284 40.4751 53.5677 40.4221 53.81 40.4204 Z" stroke-linecap="round" />
</g>
		<g transform="matrix(1 0 0 1 -9.22 5.34)"  >
<path style="stroke: none; stroke-width: 1; stroke-dasharray: none; stroke-linecap: butt; stroke-dashoffset: 0; stroke-linejoin: miter; stroke-miterlimit: 4; fill: rgb(255,217,0); fill-rule: nonzero; opacity: 1;" vector-effect="non-scaling-stroke"  transform=" translate(-59.78, -36.84)" d="M 61.0789 36.7069 C 61.0841 36.8984 61.0474 37.0888 60.9715 37.2648 C 60.8956 37.4407 60.7823 37.598 60.6394 37.7257 C 60.3736 37.9754 60.0225 38.1143 59.6578 38.114 C 59.3662 38.1195 59.0819 38.0221 58.8548 37.8391 C 58.731 37.7357 58.6331 37.6047 58.5692 37.4566 C 58.5053 37.3085 58.477 37.1475 58.4867 36.9864 C 58.4817 36.7951 58.5174 36.6048 58.5916 36.4283 C 58.6658 36.2518 58.7767 36.0932 58.917 35.9629 C 59.1777 35.7059 59.5294 35.5625 59.8954 35.5638 C 60.1904 35.5601 60.4774 35.6602 60.7062 35.8464 C 60.8309 35.951 60.9296 36.0832 60.9943 36.2326 C 61.059 36.3819 61.088 36.5443 61.0789 36.7069 Z" stroke-linecap="round" />
</g>
		<g transform="matrix(1 0 0 1 -10.57 11.14)"  >
<path style="stroke: none; stroke-width: 1; stroke-dasharray: none; stroke-linecap: butt; stroke-dashoffset: 0; stroke-linejoin: miter; stroke-miterlimit: 4; fill: rgb(255,217,0); fill-rule: nonzero; opacity: 1;" vector-effect="non-scaling-stroke"  transform=" translate(-58.43, -42.64)" d="M 60.4561 38.7523 L 58.5814 46.5335 L 56.4102 46.5335 L 58.2848 38.7523 L 60.4561 38.7523 Z" stroke-linecap="round" />
</g>
		<g transform="matrix(1 0 0 1 -5.01 12.37)"  >
<path style="stroke: none; stroke-width: 1; stroke-dasharray: none; stroke-linecap: butt; stroke-dashoffset: 0; stroke-linejoin: miter; stroke-miterlimit: 4; fill: rgb(255,217,0); fill-rule: nonzero; opacity: 1;" vector-effect="non-scaling-stroke"  transform=" translate(-63.99, -43.87)" d="M 68.1611 39.1158 C 67.7962 38.9217 67.404 38.784 66.9978 38.7073 C 66.6077 38.6284 66.2108 38.5874 65.8128 38.5846 C 65.1055 38.5763 64.4028 38.7001 63.7409 38.9496 C 63.1414 39.1773 62.5941 39.5239 62.1319 39.9685 C 61.6826 40.4094 61.3289 40.9381 61.0928 41.5216 C 60.844 42.1411 60.719 42.8033 60.7247 43.4708 C 60.7247 44.2629 60.9453 44.9105 61.3786 45.3951 C 61.8119 45.8797 62.4922 46.1375 63.379 46.1375 C 63.6814 46.1386 63.9823 46.0952 64.2721 46.0086 C 64.3653 45.9807 64.4553 45.9511 64.5408 45.9201 C 64.4382 46.2764 64.2413 46.5984 63.9708 46.852 C 63.6601 47.1284 63.1942 47.2682 62.5729 47.2682 C 62.2098 47.2732 61.8478 47.2288 61.4966 47.1362 C 61.2102 47.0595 60.935 46.9456 60.6781 46.7976 L 60.4514 46.6625 L 59.6577 48.4719 L 59.8488 48.5744 C 60.1948 48.753 60.5594 48.8931 60.9359 48.9922 C 61.3925 49.109 61.8625 49.1654 62.3338 49.1599 C 62.9456 49.1721 63.5559 49.0936 64.1447 48.9269 C 64.6198 48.7871 65.0605 48.5496 65.4385 48.2296 C 65.7974 47.9128 66.0863 47.5245 66.2865 47.0896 C 66.5089 46.6064 66.6806 46.1016 66.799 45.583 L 68.3227 39.1981 L 68.1611 39.1158 Z M 63.7953 44.3048 C 63.4505 44.3048 63.2191 44.2209 63.087 44.047 C 62.9274 43.8033 62.8511 43.5145 62.8696 43.2238 C 62.8669 42.8581 62.9328 42.4952 63.0637 42.1537 C 63.1877 41.8321 63.3717 41.537 63.6058 41.284 C 63.8481 41.0237 64.1424 40.8173 64.4697 40.6782 C 64.7969 40.5391 65.1497 40.4703 65.5053 40.4763 C 65.6206 40.4765 65.7358 40.4843 65.8501 40.4996 L 65.0269 43.9165 C 64.8621 44.0301 64.6823 44.12 64.4926 44.1837 C 64.2686 44.263 64.0329 44.304 63.7953 44.3048 Z" stroke-linecap="round" />
</g>
		<g transform="matrix(1 0 0 1 2.95 9.35)"  >
<path style="stroke: none; stroke-width: 1; stroke-dasharray: none; stroke-linecap: butt; stroke-dashoffset: 0; stroke-linejoin: miter; stroke-miterlimit: 4; fill: rgb(255,217,0); fill-rule: nonzero; opacity: 1;" vector-effect="non-scaling-stroke"  transform=" translate(-71.95, -40.85)" d="M 75.7235 41.1815 C 75.7201 41.6301 75.6617 42.0765 75.5496 42.5109 L 74.5835 46.5336 L 72.4091 46.5336 L 73.3581 42.5808 C 73.4031 42.3727 73.4497 42.1537 73.4963 41.9301 C 73.5379 41.7392 73.5598 41.5445 73.5616 41.3492 C 73.5707 41.1216 73.5011 40.8977 73.3643 40.7155 C 73.2199 40.5291 72.8782 40.4903 72.6173 40.4903 C 72.4429 40.4907 72.2688 40.5058 72.097 40.5353 C 71.9712 40.5586 71.8547 40.5835 71.7475 40.6114 L 70.3497 46.5336 L 68.1753 46.5336 L 70.8156 35.5203 L 73.0754 35.1615 L 72.2212 38.7337 L 72.4713 38.684 C 72.6995 38.6396 72.9315 38.6173 73.164 38.6172 C 73.5526 38.6086 73.9394 38.6735 74.304 38.8083 C 74.6113 38.9253 74.8884 39.1101 75.1147 39.3488 C 75.3316 39.5864 75.491 39.8707 75.5806 40.1797 C 75.678 40.5046 75.7262 40.8423 75.7235 41.1815 Z" stroke-linecap="round" />
</g>
		<g transform="matrix(1 0 0 1 7.83 15.01)"  >
<path style="stroke: none; stroke-width: 1; stroke-dasharray: none; stroke-linecap: butt; stroke-dashoffset: 0; stroke-linejoin: miter; stroke-miterlimit: 4; fill: rgb(255,217,0); fill-rule: nonzero; opacity: 1;" vector-effect="non-scaling-stroke"  transform=" translate(-76.83, -46.51)" d="M 78.6941 44.207 L 78.6739 44.457 C 78.6114 45.2488 78.389 46.0197 78.02 46.723 C 77.6564 47.4299 77.2152 48.0941 76.7045 48.7033 L 76.6036 48.8213 L 74.9619 48.3072 L 75.1265 48.0494 C 75.4848 47.4867 75.7821 46.8874 76.0134 46.2618 C 76.2386 45.6715 76.3797 45.0524 76.4327 44.4229 L 76.4498 44.207 L 78.6941 44.207 Z" stroke-linecap="round" />
</g>
		<g transform="matrix(1 0 0 1 14.97 9.95)"  >
<path style="stroke: none; stroke-width: 1; stroke-dasharray: none; stroke-linecap: butt; stroke-dashoffset: 0; stroke-linejoin: miter; stroke-miterlimit: 4; fill: rgb(255,217,0); fill-rule: nonzero; opacity: 1;" vector-effect="non-scaling-stroke"  transform=" translate(-83.97, -41.45)" d="M 86.3063 36.3729 L 83.8725 46.5335 L 81.6313 46.5335 L 84.0651 36.3729 L 86.3063 36.3729 Z" stroke-linecap="round" />
</g>
		<g transform="matrix(1 0 0 1 20.34 11.07)"  >
<path style="stroke: none; stroke-width: 1; stroke-dasharray: none; stroke-linecap: butt; stroke-dashoffset: 0; stroke-linejoin: miter; stroke-miterlimit: 4; fill: rgb(255,217,0); fill-rule: nonzero; opacity: 1;" vector-effect="non-scaling-stroke"  transform=" translate(-89.34, -42.57)" d="M 93.1188 41.1535 C 93.1178 41.3729 93.1007 41.592 93.0676 41.8089 C 93.0349 42.0326 92.9946 42.264 92.9464 42.5001 L 91.9788 46.5382 L 89.8044 46.5382 L 90.7363 42.587 C 90.7813 42.3851 90.8279 42.1754 90.8745 41.9658 C 90.9164 41.7761 90.9429 41.5834 90.9537 41.3896 C 90.9716 41.1549 90.9068 40.9214 90.7705 40.7295 C 90.6555 40.5742 90.3884 40.4996 89.9939 40.4996 C 89.7116 40.4957 89.4297 40.5239 89.1537 40.5835 L 87.7403 46.5429 L 85.5659 46.5429 L 87.3443 39.1173 L 87.4732 39.0785 C 87.8506 38.9651 88.2886 38.8579 88.7731 38.7585 C 89.3066 38.6528 89.8493 38.6007 90.3931 38.6032 C 91.3141 38.6032 92.0052 38.8378 92.451 39.3037 C 92.8967 39.7696 93.1188 40.3862 93.1188 41.1535 Z" stroke-linecap="round" />
</g>
		<g transform="matrix(1 0 0 1 28.23 11.15)"  >
<path style="stroke: none; stroke-width: 1; stroke-dasharray: none; stroke-linecap: butt; stroke-dashoffset: 0; stroke-linejoin: miter; stroke-miterlimit: 4; fill: rgb(255,217,0); fill-rule: nonzero; opacity: 1;" vector-effect="non-scaling-stroke"  transform=" translate(-97.23, -42.65)" d="M 100.615 39.049 L 99.8247 40.8305 L 99.612 40.7357 C 99.441 40.6622 99.2651 40.601 99.0854 40.5525 C 98.8582 40.4974 98.6249 40.4718 98.3912 40.4764 C 98.0522 40.4713 97.7168 40.5469 97.4127 40.6969 C 97.1248 40.8414 96.8715 41.0464 96.6703 41.298 C 96.4566 41.5722 96.295 41.8833 96.1935 42.2159 C 96.0781 42.5875 96.0205 42.9746 96.0227 43.3636 C 96.0204 43.5677 96.0439 43.7712 96.0926 43.9694 C 96.1312 44.1319 96.2032 44.2848 96.3038 44.4182 C 96.4038 44.546 96.537 44.6438 96.689 44.7009 C 96.9073 44.7799 97.1387 44.8168 97.3708 44.8096 C 97.6586 44.8101 97.9451 44.7704 98.2219 44.6916 C 98.4401 44.6345 98.6524 44.5565 98.8556 44.4586 L 99.1662 44.3033 L 99.3572 46.195 L 99.2097 46.2649 C 98.9222 46.3944 98.6239 46.4983 98.3182 46.5755 C 97.9052 46.6842 97.4794 46.7364 97.0524 46.7308 C 96.5686 46.741 96.0874 46.6565 95.6359 46.4823 C 95.2527 46.3302 94.9071 46.0965 94.6233 45.7974 C 94.3519 45.5034 94.1483 45.1535 94.0269 44.7723 C 93.8995 44.3706 93.8365 43.9512 93.8405 43.5298 C 93.8369 42.8873 93.9419 42.2487 94.1511 41.6412 C 94.3501 41.0605 94.6568 40.5225 95.0551 40.0555 C 95.4547 39.5935 95.9489 39.2227 96.5041 38.9683 C 97.1149 38.6951 97.7782 38.5594 98.4471 38.5707 C 98.7978 38.5684 99.148 38.6006 99.4924 38.6669 C 99.8056 38.7289 100.111 38.8258 100.403 38.9558 L 100.615 39.049 Z" stroke-linecap="round" />
</g>
		<g transform="matrix(1 0 0 1 -24 21.75)"  >
<path style="stroke: none; stroke-width: 1; stroke-dasharray: none; stroke-linecap: butt; stroke-dashoffset: 0; stroke-linejoin: miter; stroke-miterlimit: 4; fill: rgb(85,163,1); fill-rule: nonzero; opacity: 1;" vector-effect="non-scaling-stroke"  transform=" translate(-45, -53.25)" d="M 44.1948 51.7366 C 44.2476 51.8329 44.3082 51.9509 44.3765 52.0907 C 44.4449 52.232 44.5163 52.3842 44.5909 52.5489 C 44.6654 52.7135 44.7384 52.8797 44.8114 53.0521 C 44.8844 53.2245 44.9512 53.3845 45.0164 53.5351 L 45.2214 53.0521 C 45.2944 52.8797 45.3674 52.7119 45.442 52.5489 C 45.5165 52.3858 45.5864 52.2382 45.6563 52.0907 C 45.7262 51.9431 45.7837 51.8329 45.8365 51.7366 L 46.4577 51.7366 C 46.4872 51.9369 46.5136 52.1606 46.5385 52.4091 C 46.5633 52.6576 46.5851 52.9154 46.6037 53.1857 C 46.6224 53.4559 46.641 53.723 46.6565 53.9933 C 46.6721 54.2635 46.686 54.5167 46.6969 54.7559 L 46.0353 54.7559 C 46.0275 54.4623 46.0151 54.1424 46.0011 53.7976 C 45.9871 53.4528 45.9654 53.1033 45.9359 52.7523 C 45.8831 52.875 45.8256 53.0086 45.7604 53.1577 C 45.6951 53.3068 45.633 53.4528 45.5709 53.6019 C 45.5088 53.751 45.4482 53.8908 45.3892 54.0259 L 45.2339 54.3722 L 44.7586 54.3722 L 44.611 54.0259 C 44.552 53.8903 44.4915 53.7489 44.4293 53.6019 C 44.3657 53.4466 44.3035 53.3052 44.2383 53.1577 L 44.0643 52.7523 C 44.0354 53.1033 44.0136 53.4518 43.9991 53.7976 C 43.9851 54.1424 43.9727 54.4623 43.9649 54.7559 L 43.3018 54.7559 C 43.3142 54.5167 43.3282 54.2635 43.3437 53.9933 C 43.3592 53.723 43.3779 53.4543 43.3965 53.1857 C 43.4151 52.917 43.4369 52.6591 43.4617 52.4091 C 43.4866 52.159 43.513 51.9431 43.5425 51.7366 L 44.1948 51.7366 Z" stroke-linecap="round" />
</g>
		<g transform="matrix(1 0 0 1 -20.78 22.11)"  >
<path style="stroke: none; stroke-width: 1; stroke-dasharray: none; stroke-linecap: butt; stroke-dashoffset: 0; stroke-linejoin: miter; stroke-miterlimit: 4; fill: rgb(85,163,1); fill-rule: nonzero; opacity: 1;" vector-effect="non-scaling-stroke"  transform=" translate(-48.22, -53.61)" d="M 47.1453 53.6268 C 47.1415 53.4443 47.1731 53.2629 47.2385 53.0925 C 47.2941 52.9501 47.3781 52.8207 47.4855 52.712 C 47.5845 52.6113 47.7036 52.5324 47.8349 52.4805 C 47.9646 52.4296 48.1026 52.4032 48.2418 52.4029 C 48.385 52.3949 48.5282 52.4173 48.6621 52.4687 C 48.796 52.5201 48.9174 52.5993 49.0184 52.7011 C 49.2227 52.946 49.324 53.2605 49.3011 53.5786 C 49.3011 53.6159 49.3011 53.6578 49.3011 53.7029 C 49.3011 53.7479 49.3011 53.7867 49.2918 53.8225 L 47.8209 53.8225 C 47.8272 53.8848 47.8472 53.9449 47.8794 53.9986 C 47.9116 54.0523 47.9553 54.0982 48.0073 54.1331 C 48.1393 54.218 48.2947 54.2593 48.4515 54.2511 C 48.5693 54.2513 48.6868 54.2404 48.8025 54.2185 C 48.899 54.2024 48.9933 54.1753 49.0836 54.1377 L 49.1706 54.6643 C 49.126 54.6867 49.0791 54.7044 49.0308 54.7171 C 48.967 54.7358 48.9022 54.7509 48.8367 54.7621 C 48.7612 54.7769 48.685 54.7878 48.6084 54.7947 C 48.5274 54.8041 48.446 54.8087 48.3645 54.8087 C 48.1812 54.8123 47.9989 54.7813 47.8272 54.7171 C 47.6842 54.6622 47.5549 54.5768 47.4482 54.467 C 47.3472 54.3592 47.2713 54.2303 47.2261 54.0896 C 47.1747 53.9406 47.1474 53.7844 47.1453 53.6268 Z M 48.669 53.3783 C 48.6655 53.3256 48.6561 53.2735 48.641 53.2229 C 48.6259 53.1718 48.6006 53.1242 48.5664 53.0832 C 48.532 53.0416 48.4891 53.0077 48.4406 52.9838 C 48.3815 52.9558 48.3165 52.9425 48.2512 52.9449 C 48.1867 52.9437 48.1227 52.9559 48.0632 52.9807 C 48.0133 53.0043 47.9688 53.0382 47.9328 53.0801 C 47.8977 53.1218 47.8708 53.1697 47.8536 53.2214 C 47.8346 53.2717 47.8206 53.3237 47.8116 53.3767 L 48.669 53.3783 Z" stroke-linecap="round" />
</g>
		<g transform="matrix(1 0 0 1 -18.24 21.59)"  >
<path style="stroke: none; stroke-width: 1; stroke-dasharray: none; stroke-linecap: butt; stroke-dashoffset: 0; stroke-linejoin: miter; stroke-miterlimit: 4; fill: rgb(85,163,1); fill-rule: nonzero; opacity: 1;" vector-effect="non-scaling-stroke"  transform=" translate(-50.76, -53.09)" d="M 51.8205 54.6798 C 51.763 54.6969 51.6962 54.7139 51.6201 54.7295 C 51.544 54.745 51.4648 54.759 51.3825 54.7714 C 51.3002 54.7838 51.2163 54.7916 51.1309 54.7994 C 51.0454 54.8071 50.9631 54.8102 50.8839 54.8102 C 50.7121 54.8127 50.5412 54.7849 50.3791 54.7279 C 50.2386 54.6768 50.1109 54.5957 50.0048 54.4903 C 49.9015 54.3835 49.8221 54.2559 49.7719 54.116 C 49.7157 53.9575 49.6883 53.7902 49.6911 53.6221 C 49.6888 53.4518 49.7124 53.2821 49.761 53.1189 C 49.802 52.98 49.8701 52.8507 49.9614 52.7383 C 50.0475 52.634 50.1572 52.5515 50.2813 52.4976 C 50.4186 52.4409 50.5661 52.4128 50.7146 52.4153 C 50.7961 52.4146 50.8775 52.4235 50.9569 52.4417 C 51.0305 52.4598 51.1023 52.4848 51.1712 52.5163 L 51.1712 51.4803 L 51.8205 51.3747 L 51.8205 54.6798 Z M 50.3527 53.5926 C 50.3443 53.764 50.3917 53.9335 50.4879 54.0756 C 50.5345 54.1365 50.5955 54.185 50.6654 54.2167 C 50.7353 54.2484 50.812 54.2624 50.8886 54.2573 C 50.946 54.2573 51.0004 54.2573 51.0439 54.2573 C 51.0874 54.2573 51.134 54.248 51.165 54.2418 L 51.165 53.0614 C 51.1167 53.0323 51.0644 53.0103 51.0097 52.9962 C 50.9449 52.9789 50.878 52.97 50.8109 52.9698 C 50.5055 52.9656 50.3527 53.1727 50.3527 53.591 L 50.3527 53.5926 Z" stroke-linecap="round" />
</g>
		<g transform="matrix(1 0 0 1 -16.25 21.59)"  >
<path style="stroke: none; stroke-width: 1; stroke-dasharray: none; stroke-linecap: butt; stroke-dashoffset: 0; stroke-linejoin: miter; stroke-miterlimit: 4; fill: rgb(85,163,1); fill-rule: nonzero; opacity: 1;" vector-effect="non-scaling-stroke"  transform=" translate(-52.75, -53.09)" d="M 53.1392 51.8018 C 53.1421 51.8543 53.1333 51.9067 53.1134 51.9553 C 53.0935 52.004 53.0631 52.0476 53.0243 52.083 C 52.9492 52.149 52.8525 52.1855 52.7525 52.1855 C 52.6524 52.1855 52.5558 52.149 52.4807 52.083 C 52.4061 52.0084 52.3643 51.9073 52.3643 51.8018 C 52.3643 51.6964 52.4061 51.5953 52.4807 51.5207 C 52.5558 51.4547 52.6524 51.4182 52.7525 51.4182 C 52.8525 51.4182 52.9492 51.4547 53.0243 51.5207 C 53.0631 51.5561 53.0935 51.5997 53.1134 51.6483 C 53.1333 51.697 53.1421 51.7494 53.1392 51.8018 Z M 53.0786 54.7528 L 52.4263 54.7528 L 52.4263 52.4635 L 53.0755 52.4635 L 53.0786 54.7528 Z" stroke-linecap="round" />
</g>
		<g transform="matrix(1 0 0 1 -14.49 22.11)"  >
<path style="stroke: none; stroke-width: 1; stroke-dasharray: none; stroke-linecap: butt; stroke-dashoffset: 0; stroke-linejoin: miter; stroke-miterlimit: 4; fill: rgb(85,163,1); fill-rule: nonzero; opacity: 1;" vector-effect="non-scaling-stroke"  transform=" translate(-54.51, -53.61)" d="M 53.5806 53.6081 C 53.5798 53.4494 53.6066 53.2917 53.6598 53.1422 C 53.71 52.9987 53.7897 52.8674 53.8937 52.7567 C 53.9978 52.6459 54.1239 52.5582 54.264 52.4992 C 54.4207 52.4335 54.5895 52.4012 54.7594 52.4045 C 54.8721 52.4035 54.9846 52.4144 55.0949 52.4371 C 55.1965 52.4587 55.2958 52.4899 55.3916 52.5303 L 55.2564 53.049 C 55.1909 53.0244 55.124 53.0037 55.0561 52.9869 C 54.976 52.9693 54.8942 52.961 54.8122 52.962 C 54.7318 52.9558 54.651 52.9688 54.5764 52.9998 C 54.5019 53.0309 54.4358 53.0791 54.3836 53.1406 C 54.2844 53.2751 54.2345 53.4397 54.2422 53.6066 C 54.2315 53.7768 54.2779 53.9457 54.3743 54.0865 C 54.4336 54.1487 54.5065 54.1964 54.5874 54.2258 C 54.6682 54.2552 54.7547 54.2654 54.8402 54.2558 C 54.9245 54.255 55.0086 54.2477 55.0918 54.2341 C 55.1773 54.2215 55.2608 54.198 55.3403 54.1642 L 55.4319 54.6953 C 55.3409 54.7328 55.2462 54.7604 55.1493 54.7777 C 55.026 54.8021 54.9006 54.8141 54.775 54.8134 C 54.5904 54.8179 54.4068 54.7862 54.2345 54.7202 C 54.0932 54.6634 53.9659 54.5765 53.8617 54.4655 C 53.7635 54.3553 53.6909 54.2249 53.6489 54.0834 C 53.6025 53.9293 53.5795 53.7691 53.5806 53.6081 Z" stroke-linecap="round" />
</g>
		<g transform="matrix(1 0 0 1 -12.41 22.1)"  >
<path style="stroke: none; stroke-width: 1; stroke-dasharray: none; stroke-linecap: butt; stroke-dashoffset: 0; stroke-linejoin: miter; stroke-miterlimit: 4; fill: rgb(85,163,1); fill-rule: nonzero; opacity: 1;" vector-effect="non-scaling-stroke"  transform=" translate(-56.59, -53.6)" d="M 56.5794 52.4029 C 56.7419 52.3988 56.9039 52.4208 57.0593 52.4681 C 57.1767 52.5036 57.2834 52.5676 57.37 52.6545 C 57.4458 52.7388 57.4992 52.8408 57.5253 52.9511 C 57.559 53.0778 57.5752 53.2084 57.5734 53.3394 L 57.5734 54.6891 C 57.4802 54.7093 57.3513 54.7326 57.1867 54.7605 C 56.9878 54.7903 56.7868 54.8038 56.5856 54.8009 C 56.45 54.8025 56.3147 54.7894 56.1818 54.7621 C 56.0711 54.7397 55.9657 54.6965 55.8712 54.6347 C 55.7854 54.5756 55.7164 54.4954 55.6708 54.4018 C 55.6212 54.2905 55.5973 54.1695 55.601 54.0477 C 55.5972 53.9296 55.6251 53.8127 55.6817 53.7091 C 55.7338 53.618 55.808 53.5416 55.8976 53.487 C 55.9934 53.4293 56.0985 53.3888 56.2082 53.3674 C 56.3272 53.3422 56.4485 53.3297 56.5701 53.3301 C 56.6448 53.3294 56.7195 53.333 56.7938 53.341 C 56.8461 53.3467 56.898 53.3561 56.9491 53.3689 L 56.9491 53.3084 C 56.9514 53.2597 56.9438 53.211 56.9267 53.1653 C 56.9096 53.1197 56.8834 53.078 56.8497 53.0428 C 56.7506 52.9652 56.6254 52.929 56.5002 52.9418 C 56.391 52.9423 56.282 52.9506 56.1741 52.9667 C 56.0794 52.9796 55.9863 53.002 55.896 53.0335 L 55.8137 52.5116 C 55.8601 52.4967 55.9073 52.4842 55.9551 52.4743 C 56.011 52.4619 56.0731 52.4495 56.1399 52.4402 C 56.2067 52.4308 56.2766 52.42 56.3511 52.4138 C 56.427 52.4061 56.5032 52.4024 56.5794 52.4029 Z M 56.6322 54.3008 C 56.6959 54.3008 56.7565 54.3008 56.8155 54.3008 C 56.8618 54.2993 56.9079 54.2952 56.9537 54.2884 L 56.9537 53.7914 C 56.9273 53.7914 56.8885 53.7805 56.8372 53.7743 C 56.7893 53.7684 56.7411 53.7653 56.6928 53.765 C 56.6352 53.7653 56.5776 53.7689 56.5204 53.7759 C 56.4714 53.7822 56.4237 53.7964 56.3791 53.8178 C 56.3388 53.8364 56.3049 53.8666 56.2817 53.9045 C 56.2585 53.9423 56.247 53.9862 56.2486 54.0306 C 56.2441 54.0719 56.2513 54.1136 56.2694 54.151 C 56.2876 54.1883 56.3159 54.2198 56.3511 54.2418 C 56.438 54.2859 56.535 54.3063 56.6322 54.3008 Z" stroke-linecap="round" />
</g>
		<g transform="matrix(1 0 0 1 -10.33 21.59)"  >
<path style="stroke: none; stroke-width: 1; stroke-dasharray: none; stroke-linecap: butt; stroke-dashoffset: 0; stroke-linejoin: miter; stroke-miterlimit: 4; fill: rgb(85,163,1); fill-rule: nonzero; opacity: 1;" vector-effect="non-scaling-stroke"  transform=" translate(-58.67, -53.09)" d="M 59.0785 54.7978 C 58.9235 54.7998 58.7691 54.7788 58.6203 54.7357 C 58.516 54.707 58.4201 54.6538 58.3407 54.5804 C 58.2722 54.512 58.2238 54.426 58.2009 54.3319 C 58.1754 54.2245 58.1634 54.1145 58.1652 54.0042 L 58.1652 51.4803 L 58.8129 51.3747 L 58.8129 53.8706 C 58.8123 53.9227 58.817 53.9747 58.8269 54.0259 C 58.8331 54.0688 58.8502 54.1095 58.8766 54.1439 C 58.9049 54.1791 58.9418 54.2064 58.9837 54.2231 C 59.0433 54.2461 59.1063 54.2592 59.1701 54.262 L 59.0785 54.7978 Z" stroke-linecap="round" />
</g>
		<g transform="matrix(1 0 0 1 -6.65 21.75)"  >
<path style="stroke: none; stroke-width: 1; stroke-dasharray: none; stroke-linecap: butt; stroke-dashoffset: 0; stroke-linejoin: miter; stroke-miterlimit: 4; fill: rgb(85,163,1); fill-rule: nonzero; opacity: 1;" vector-effect="non-scaling-stroke"  transform=" translate(-62.35, -53.25)" d="M 62.6571 52.0581 C 62.6913 52.1777 62.7301 52.3112 62.772 52.4619 C 62.814 52.6125 62.859 52.7648 62.9071 52.9278 C 62.9553 53.0909 63.0034 53.2478 63.0516 53.4078 C 63.0997 53.5677 63.1494 53.7184 63.196 53.8519 C 63.2333 53.6966 63.2721 53.5413 63.311 53.3674 C 63.3498 53.1934 63.3886 53.0133 63.4228 52.8284 C 63.4569 52.6436 63.4927 52.4572 63.5253 52.2724 C 63.5579 52.0876 63.5905 51.9105 63.62 51.7397 L 64.3252 51.7397 C 64.2216 52.245 64.1041 52.757 63.9726 53.2757 C 63.8411 53.7945 63.6972 54.2884 63.5408 54.7574 L 62.9196 54.7574 C 62.8171 54.4779 62.7192 54.1859 62.6229 53.8799 C 62.5266 53.5739 62.4334 53.2664 62.3402 52.9589 C 62.2471 53.2695 62.1554 53.5802 62.0622 53.8799 C 61.969 54.1797 61.8712 54.4779 61.7702 54.7574 L 61.149 54.7574 C 60.9937 54.2904 60.8503 53.7966 60.7188 53.2757 C 60.5873 52.7549 60.4698 52.2429 60.3662 51.7397 L 61.1024 51.7397 C 61.1319 51.9105 61.163 52.0891 61.1987 52.2724 C 61.2344 52.4557 61.2701 52.6421 61.3074 52.8284 C 61.3447 53.0148 61.3835 53.1934 61.4239 53.3674 C 61.4643 53.5413 61.5031 53.7028 61.5435 53.8519 C 61.5963 53.7091 61.6476 53.5584 61.6988 53.3984 C 61.7501 53.2385 61.7951 53.0785 61.8417 52.9201 C 61.8883 52.7616 61.9318 52.6094 61.9706 52.4541 C 62.0094 52.2988 62.0452 52.1746 62.0778 52.0581 L 62.6571 52.0581 Z" stroke-linecap="round" />
</g>
		<g transform="matrix(1 0 0 1 -3.46 22.11)"  >
<path style="stroke: none; stroke-width: 1; stroke-dasharray: none; stroke-linecap: butt; stroke-dashoffset: 0; stroke-linejoin: miter; stroke-miterlimit: 4; fill: rgb(85,163,1); fill-rule: nonzero; opacity: 1;" vector-effect="non-scaling-stroke"  transform=" translate(-65.54, -53.61)" d="M 64.4598 53.6267 C 64.4559 53.4443 64.4876 53.2628 64.553 53.0925 C 64.6091 52.9504 64.693 52.821 64.7999 52.7119 C 64.8995 52.6112 65.0191 52.5324 65.1509 52.4805 C 65.2805 52.4294 65.4185 52.4031 65.5578 52.4029 C 65.701 52.3948 65.8443 52.4171 65.9782 52.4685 C 66.112 52.52 66.2335 52.5992 66.3344 52.7011 C 66.5387 52.946 66.64 53.2605 66.6171 53.5786 C 66.6171 53.6159 66.6171 53.6578 66.6171 53.7028 C 66.6171 53.7479 66.6171 53.7867 66.6093 53.8224 L 65.1369 53.8224 C 65.1435 53.8848 65.1638 53.945 65.1963 53.9987 C 65.2287 54.0524 65.2727 54.0983 65.3249 54.1331 C 65.4568 54.2182 65.6123 54.2595 65.7691 54.2511 C 65.8863 54.2512 66.0033 54.2403 66.1185 54.2185 C 66.215 54.2023 66.3093 54.1752 66.3996 54.1377 L 66.4866 54.6642 C 66.442 54.6866 66.3951 54.7043 66.3468 54.717 C 66.2836 54.7358 66.2193 54.7508 66.1543 54.7621 C 66.0828 54.7755 66.0067 54.7864 65.9259 54.7947 C 65.845 54.804 65.7636 54.8086 65.6821 54.8087 C 65.4983 54.8124 65.3154 54.7814 65.1432 54.717 C 65.0002 54.6621 64.8709 54.5768 64.7642 54.467 C 64.6632 54.3591 64.5873 54.2302 64.5421 54.0896 C 64.4909 53.9405 64.4631 53.7843 64.4598 53.6267 Z M 65.9834 53.3782 C 65.9807 53.3255 65.9713 53.2733 65.9554 53.2229 C 65.9403 53.1721 65.9155 53.1246 65.8825 53.0831 C 65.847 53.0419 65.8037 53.0081 65.7551 52.9837 C 65.696 52.9556 65.631 52.9423 65.5656 52.9449 C 65.5017 52.9435 65.4381 52.9557 65.3792 52.9806 C 65.3288 53.0034 65.2842 53.0374 65.2488 53.08 C 65.2127 53.1213 65.1852 53.1693 65.168 53.2214 C 65.1497 53.2719 65.1357 53.3238 65.1261 53.3767 L 65.9834 53.3782 Z" stroke-linecap="round" />
</g>
		<g transform="matrix(1 0 0 1 -1.57 21.59)"  >
<path style="stroke: none; stroke-width: 1; stroke-dasharray: none; stroke-linecap: butt; stroke-dashoffset: 0; stroke-linejoin: miter; stroke-miterlimit: 4; fill: rgb(85,163,1); fill-rule: nonzero; opacity: 1;" vector-effect="non-scaling-stroke"  transform=" translate(-67.43, -53.09)" d="M 67.8213 51.8018 C 67.8242 51.8543 67.8154 51.9067 67.7955 51.9553 C 67.7757 52.004 67.7452 52.0476 67.7064 52.083 C 67.6313 52.149 67.5347 52.1855 67.4346 52.1855 C 67.3346 52.1855 67.2379 52.149 67.1628 52.083 C 67.0883 52.0084 67.0464 51.9073 67.0464 51.8018 C 67.0464 51.6964 67.0883 51.5953 67.1628 51.5207 C 67.2379 51.4547 67.3346 51.4182 67.4346 51.4182 C 67.5347 51.4182 67.6313 51.4547 67.7064 51.5207 C 67.7452 51.5561 67.7757 51.5997 67.7955 51.6483 C 67.8154 51.697 67.8242 51.7494 67.8213 51.8018 Z M 67.7608 54.7528 L 67.1116 54.7528 L 67.1116 52.4635 L 67.7608 52.4635 L 67.7608 54.7528 Z" stroke-linecap="round" />
</g>
		<g transform="matrix(1 0 0 1 0.3 22.49)"  >
<path style="stroke: none; stroke-width: 1; stroke-dasharray: none; stroke-linecap: butt; stroke-dashoffset: 0; stroke-linejoin: miter; stroke-miterlimit: 4; fill: rgb(85,163,1); fill-rule: nonzero; opacity: 1;" vector-effect="non-scaling-stroke"  transform=" translate(-69.3, -53.99)" d="M 70.3467 54.467 C 70.3467 54.8408 70.252 55.1183 70.0625 55.2995 C 69.873 55.4807 69.5789 55.5718 69.1803 55.5729 C 69.0402 55.5728 68.9004 55.5603 68.7625 55.5356 C 68.6308 55.5127 68.501 55.48 68.3742 55.4377 L 68.4876 54.8926 C 68.5911 54.9345 68.6982 54.9667 68.8076 54.9889 C 68.9334 55.0132 69.0614 55.0247 69.1896 55.0231 C 69.2599 55.0303 69.3309 55.0232 69.3984 55.0024 C 69.4659 54.9816 69.5286 54.9474 69.5826 54.9019 C 69.6609 54.8178 69.7028 54.7062 69.6991 54.5913 L 69.6991 54.509 C 69.6298 54.5404 69.5575 54.5644 69.4832 54.5804 C 69.4035 54.597 69.3223 54.6053 69.2409 54.6053 C 69.1066 54.6136 68.9721 54.5929 68.8467 54.5443 C 68.7212 54.4958 68.6077 54.4207 68.514 54.3241 C 68.3347 54.1029 68.2449 53.8225 68.2624 53.5383 C 68.259 53.3795 68.2854 53.2214 68.3401 53.0723 C 68.39 52.9389 68.4678 52.8176 68.5684 52.7166 C 68.674 52.6159 68.7993 52.5382 68.9365 52.4883 C 69.0946 52.4329 69.2612 52.4055 69.4288 52.4076 C 69.5065 52.4076 69.5841 52.4076 69.6695 52.4184 C 69.755 52.4293 69.8357 52.4355 69.9165 52.448 C 69.9973 52.4604 70.0718 52.4728 70.1495 52.4883 C 70.2271 52.5039 70.2893 52.521 70.3467 52.5396 L 70.3467 54.467 Z M 68.924 53.5352 C 68.924 53.8976 69.0706 54.0788 69.3636 54.0788 C 69.4267 54.0798 69.4896 54.0709 69.55 54.0523 C 69.6039 54.0383 69.6561 54.018 69.7053 53.9918 L 69.7053 52.9558 C 69.6727 52.9558 69.6354 52.945 69.5919 52.9403 C 69.5402 52.9376 69.4883 52.9376 69.4366 52.9403 C 69.3636 52.9347 69.2905 52.9473 69.2235 52.9768 C 69.1566 53.0064 69.098 53.052 69.053 53.1096 C 68.9654 53.2339 68.9202 53.3831 68.924 53.5352 Z" stroke-linecap="round" />
</g>
		<g transform="matrix(1 0 0 1 2.95 21.56)"  >
<path style="stroke: none; stroke-width: 1; stroke-dasharray: none; stroke-linecap: butt; stroke-dashoffset: 0; stroke-linejoin: miter; stroke-miterlimit: 4; fill: rgb(85,163,1); fill-rule: nonzero; opacity: 1;" vector-effect="non-scaling-stroke"  transform=" translate(-71.95, -53.06)" d="M 70.957 54.7543 L 70.957 51.4803 L 71.6062 51.3747 L 71.6062 52.4728 C 71.7242 52.4344 71.8472 52.4134 71.9712 52.4106 C 72.13 52.4062 72.2881 52.432 72.4372 52.4867 C 72.5526 52.532 72.6542 52.6063 72.7323 52.7026 C 72.8084 52.7998 72.8615 52.9129 72.8876 53.0334 C 72.9199 53.1735 72.9356 53.3168 72.9342 53.4606 L 72.9342 54.7543 L 72.285 54.7543 L 72.285 53.5398 C 72.2969 53.3872 72.2691 53.2342 72.2042 53.0956 C 72.1708 53.049 72.1255 53.0122 72.0731 52.9889 C 72.0206 52.9657 71.963 52.957 71.906 52.9636 C 71.8513 52.9638 71.7967 52.969 71.7429 52.9791 L 71.6062 53.0117 L 71.6062 54.7543 L 70.957 54.7543 Z" stroke-linecap="round" />
</g>
		<g transform="matrix(1 0 0 1 5.26 21.8)"  >
<path style="stroke: none; stroke-width: 1; stroke-dasharray: none; stroke-linecap: butt; stroke-dashoffset: 0; stroke-linejoin: miter; stroke-miterlimit: 4; fill: rgb(85,163,1); fill-rule: nonzero; opacity: 1;" vector-effect="non-scaling-stroke"  transform=" translate(-74.26, -53.3)" d="M 73.4991 51.8934 L 74.1483 51.7894 L 74.1483 52.4634 L 74.9249 52.4634 L 74.9249 53.0039 L 74.1483 53.0039 L 74.1483 53.8084 C 74.1428 53.9221 74.1674 54.0351 74.2197 54.1362 C 74.2529 54.1801 74.297 54.2145 74.3478 54.2358 C 74.3986 54.2571 74.4541 54.2645 74.5086 54.2573 C 74.5811 54.2574 74.6534 54.2506 74.7245 54.2371 C 74.7939 54.2256 74.8621 54.2074 74.928 54.1827 L 75.0181 54.6891 C 74.9332 54.7227 74.846 54.7502 74.7571 54.7714 C 74.6414 54.7966 74.523 54.808 74.4046 54.8056 C 74.2548 54.8104 74.1055 54.7862 73.965 54.7341 C 73.8568 54.6921 73.7611 54.6232 73.687 54.5338 C 73.6144 54.4433 73.5643 54.3368 73.541 54.2231 C 73.512 54.09 73.4979 53.954 73.4991 53.8178 L 73.4991 51.8934 Z" stroke-linecap="round" />
</g>
		<g transform="matrix(1 0 0 1 8.55 21.75)"  >
<path style="stroke: none; stroke-width: 1; stroke-dasharray: none; stroke-linecap: butt; stroke-dashoffset: 0; stroke-linejoin: miter; stroke-miterlimit: 4; fill: rgb(85,163,1); fill-rule: nonzero; opacity: 1;" vector-effect="non-scaling-stroke"  transform=" translate(-77.55, -53.25)" d="M 78.5596 54.1703 L 78.5596 54.7543 L 76.5405 54.7543 L 76.5405 51.7366 L 77.2192 51.7366 L 77.2192 54.1703 L 78.5596 54.1703 Z" stroke-linecap="round" />
</g>
		<g transform="matrix(1 0 0 1 10.97 22.11)"  >
<path style="stroke: none; stroke-width: 1; stroke-dasharray: none; stroke-linecap: butt; stroke-dashoffset: 0; stroke-linejoin: miter; stroke-miterlimit: 4; fill: rgb(85,163,1); fill-rule: nonzero; opacity: 1;" vector-effect="non-scaling-stroke"  transform=" translate(-79.97, -53.61)" d="M 81.0924 53.605 C 81.0939 53.7728 81.0676 53.9397 81.0148 54.0989 C 80.9663 54.2405 80.8891 54.3706 80.788 54.481 C 80.6884 54.5877 80.5671 54.6719 80.4323 54.7279 C 80.1357 54.8438 79.8064 54.8438 79.5098 54.7279 C 79.3752 54.6722 79.2544 54.588 79.1557 54.481 C 79.0532 54.3708 78.9744 54.2408 78.9242 54.0989 C 78.8675 53.9405 78.8397 53.7732 78.8419 53.605 C 78.8398 53.4372 78.8682 53.2703 78.9258 53.1127 C 78.9779 52.9716 79.0582 52.8426 79.1619 52.7337 C 79.2626 52.6284 79.3843 52.5453 79.5191 52.4899 C 79.6619 52.431 79.8151 52.4014 79.9695 52.4029 C 80.1255 52.4014 80.2802 52.431 80.4246 52.4899 C 80.5586 52.545 80.6794 52.6281 80.7787 52.7337 C 80.8809 52.8429 80.9597 52.9719 81.0101 53.1127 C 81.0664 53.2706 81.0943 53.4373 81.0924 53.605 Z M 80.4308 53.605 C 80.4397 53.4387 80.398 53.2735 80.3112 53.1313 C 80.2734 53.0762 80.2222 53.0316 80.1624 53.0018 C 80.1026 52.9719 80.0363 52.9577 79.9695 52.9605 C 79.9023 52.9577 79.8355 52.9719 79.7753 53.0018 C 79.715 53.0316 79.6632 53.0762 79.6247 53.1313 C 79.5367 53.2731 79.4944 53.4384 79.5036 53.605 C 79.4949 53.7725 79.5371 53.9388 79.6247 54.0818 C 79.6625 54.138 79.714 54.1836 79.7743 54.2143 C 79.8347 54.2451 79.9018 54.2599 79.9695 54.2573 C 80.0367 54.2599 80.1035 54.2451 80.1634 54.2144 C 80.2232 54.1836 80.2741 54.138 80.3112 54.0818 C 80.3975 53.9383 80.4392 53.7723 80.4308 53.605 Z" stroke-linecap="round" />
</g>
		<g transform="matrix(1 0 0 1 13.34 22.11)"  >
<path style="stroke: none; stroke-width: 1; stroke-dasharray: none; stroke-linecap: butt; stroke-dashoffset: 0; stroke-linejoin: miter; stroke-miterlimit: 4; fill: rgb(85,163,1); fill-rule: nonzero; opacity: 1;" vector-effect="non-scaling-stroke"  transform=" translate(-82.34, -53.61)" d="M 82.2467 54.2884 C 82.3321 54.2935 82.4177 54.2814 82.4983 54.2527 C 82.523 54.2405 82.5434 54.221 82.5568 54.1968 C 82.5701 54.1727 82.5757 54.145 82.5728 54.1176 C 82.5703 54.0883 82.5601 54.0602 82.5431 54.0362 C 82.5262 54.0122 82.5033 53.9931 82.4766 53.9809 C 82.384 53.9281 82.2868 53.8839 82.1861 53.8489 C 82.0836 53.81 81.992 53.7712 81.9097 53.7308 C 81.8318 53.6939 81.7605 53.6446 81.6984 53.5848 C 81.6393 53.5282 81.5931 53.4593 81.5633 53.3829 C 81.5289 53.2922 81.5126 53.1957 81.5152 53.0987 C 81.5121 53.001 81.5322 52.9039 81.5738 52.8154 C 81.6153 52.7268 81.6772 52.6494 81.7543 52.5893 C 81.9463 52.4554 82.1776 52.3897 82.4113 52.4029 C 82.5458 52.4024 82.68 52.4149 82.812 52.4402 C 82.9175 52.4582 83.0214 52.4847 83.1227 52.5194 L 83.0108 53.0257 C 82.9299 52.9979 82.8474 52.9746 82.7639 52.9558 C 82.666 52.9344 82.5659 52.9239 82.4657 52.9248 C 82.2622 52.9248 82.1551 52.9822 82.1551 53.0956 C 82.155 53.1189 82.1592 53.1421 82.1675 53.1639 C 82.1792 53.1882 82.1975 53.2087 82.2203 53.223 C 82.2543 53.2465 82.2901 53.2673 82.3275 53.2851 C 82.3725 53.3068 82.43 53.3301 82.4983 53.3565 C 82.6196 53.3993 82.7374 53.4512 82.8509 53.5118 C 82.9327 53.5545 83.0072 53.6101 83.0714 53.6765 C 83.1237 53.7334 83.1625 53.8013 83.1848 53.8753 C 83.2079 53.9571 83.2189 54.0419 83.2174 54.1269 C 83.2227 54.227 83.202 54.3268 83.1573 54.4166 C 83.1127 54.5064 83.0457 54.5831 82.9627 54.6394 C 82.7452 54.7681 82.4942 54.8287 82.242 54.8134 C 82.0712 54.8172 81.9006 54.7995 81.7342 54.7606 C 81.6388 54.7389 81.5454 54.7098 81.4546 54.6736 L 81.5633 54.1471 C 81.6732 54.1904 81.7864 54.2247 81.9019 54.2496 C 82.0151 54.2746 82.1307 54.2876 82.2467 54.2884 Z" stroke-linecap="round" />
</g>
		<g transform="matrix(1 0 0 1 15.45 22.11)"  >
<path style="stroke: none; stroke-width: 1; stroke-dasharray: none; stroke-linecap: butt; stroke-dashoffset: 0; stroke-linejoin: miter; stroke-miterlimit: 4; fill: rgb(85,163,1); fill-rule: nonzero; opacity: 1;" vector-effect="non-scaling-stroke"  transform=" translate(-84.45, -53.61)" d="M 84.3619 54.2884 C 84.4478 54.2935 84.5339 54.2813 84.6151 54.2527 C 84.6398 54.2405 84.6602 54.221 84.6736 54.1968 C 84.6869 54.1727 84.6925 54.145 84.6896 54.1176 C 84.6871 54.0883 84.6768 54.0602 84.6599 54.0362 C 84.643 54.0122 84.62 53.9931 84.5933 53.9809 C 84.5002 53.9281 84.4025 53.8839 84.3014 53.8489 C 84.2004 53.81 84.1072 53.7712 84.0249 53.7308 C 83.9475 53.6932 83.8763 53.6439 83.8137 53.5848 C 83.7555 53.5273 83.7095 53.4586 83.6785 53.3829 C 83.6449 53.292 83.6286 53.1956 83.6304 53.0987 C 83.6275 53.0008 83.6479 52.9037 83.6897 52.8151 C 83.7315 52.7266 83.7937 52.6492 83.8711 52.5893 C 84.0629 52.4549 84.2944 52.3892 84.5281 52.4029 C 84.6626 52.4024 84.7968 52.4149 84.9288 52.4402 C 85.0343 52.4584 85.1381 52.4849 85.2394 52.5194 L 85.1261 53.0257 C 85.0457 52.9977 84.9637 52.9744 84.8807 52.9558 C 84.7827 52.9344 84.6827 52.9239 84.5825 52.9248 C 84.379 52.9248 84.2718 52.9822 84.2718 53.0956 C 84.2708 53.119 84.275 53.1424 84.2843 53.1639 C 84.296 53.1882 84.3143 53.2086 84.3371 53.223 C 84.3703 53.2469 84.4056 53.2677 84.4427 53.2851 C 84.4877 53.3068 84.5452 53.3301 84.6151 53.3565 C 84.7363 53.3996 84.8541 53.4515 84.9676 53.5118 C 85.0495 53.5545 85.124 53.6101 85.1882 53.6765 C 85.2394 53.7341 85.278 53.8018 85.3016 53.8753 C 85.3247 53.9571 85.3357 54.0419 85.3342 54.1269 C 85.3394 54.227 85.3188 54.3268 85.2741 54.4166 C 85.2295 54.5064 85.1625 54.5831 85.0795 54.6394 C 84.862 54.7679 84.611 54.8285 84.3588 54.8134 C 84.188 54.8172 84.0173 54.7995 83.8509 54.7606 C 83.7552 54.7386 83.6612 54.7095 83.5698 54.6736 L 83.6785 54.1471 C 83.7889 54.1906 83.9027 54.2249 84.0187 54.2496 C 84.1314 54.2746 84.2465 54.2876 84.3619 54.2884 Z" stroke-linecap="round" />
</g>
		<g transform="matrix(1 0 0 1 19.03 21.74)"  >
<path style="stroke: none; stroke-width: 1; stroke-dasharray: none; stroke-linecap: butt; stroke-dashoffset: 0; stroke-linejoin: miter; stroke-miterlimit: 4; fill: rgb(85,163,1); fill-rule: nonzero; opacity: 1;" vector-effect="non-scaling-stroke"  transform=" translate(-88.03, -53.24)" d="M 88.2807 54.8149 C 87.7914 54.8149 87.4171 54.6782 87.1609 54.4049 C 86.9046 54.1315 86.7741 53.7448 86.7741 53.2431 C 86.7707 53.015 86.8108 52.7884 86.8922 52.5753 C 86.9653 52.3906 87.0758 52.2229 87.2168 52.0829 C 87.3546 51.945 87.5211 51.8389 87.7045 51.7723 C 87.9011 51.7012 88.1089 51.666 88.3179 51.6683 C 88.4345 51.6673 88.5509 51.6767 88.6658 51.6962 C 88.7588 51.7122 88.8506 51.734 88.9408 51.7614 C 89.0076 51.7826 89.0729 51.808 89.1364 51.8376 C 89.1877 51.864 89.2265 51.8841 89.2498 51.8997 L 89.0541 52.4479 C 88.9508 52.3944 88.842 52.3522 88.7295 52.3221 C 88.5924 52.285 88.4507 52.2672 88.3086 52.2693 C 88.2028 52.2685 88.0976 52.2864 87.998 52.3221 C 87.8977 52.3561 87.8068 52.413 87.7324 52.4883 C 87.6497 52.5738 87.5861 52.676 87.546 52.7881 C 87.4973 52.9304 87.4742 53.0803 87.4777 53.2307 C 87.4762 53.362 87.4913 53.493 87.5227 53.6205 C 87.5497 53.7332 87.6 53.8391 87.6703 53.9312 C 87.7422 54.0204 87.8343 54.0912 87.939 54.1377 C 88.0654 54.192 88.2022 54.2179 88.3397 54.2138 C 88.4285 54.2142 88.5172 54.2085 88.6053 54.1968 C 88.6829 54.1843 88.7606 54.1704 88.8134 54.1548 C 88.8665 54.1407 88.9184 54.1225 88.9687 54.1005 L 89.0945 54.0446 L 89.2824 54.5882 C 89.1551 54.6584 89.0187 54.7107 88.8771 54.7435 C 88.6821 54.7927 88.4817 54.8167 88.2807 54.8149 Z" stroke-linecap="round" />
</g>
		<g transform="matrix(1 0 0 1 21.6 22.11)"  >
<path style="stroke: none; stroke-width: 1; stroke-dasharray: none; stroke-linecap: butt; stroke-dashoffset: 0; stroke-linejoin: miter; stroke-miterlimit: 4; fill: rgb(85,163,1); fill-rule: nonzero; opacity: 1;" vector-effect="non-scaling-stroke"  transform=" translate(-90.6, -53.61)" d="M 89.5213 53.6267 C 89.5172 53.4441 89.5494 53.2625 89.6161 53.0925 C 89.6717 52.9505 89.7551 52.8211 89.8615 52.7119 C 89.9611 52.6112 90.0807 52.5324 90.2125 52.4805 C 90.3421 52.4294 90.4801 52.4031 90.6194 52.4029 C 90.7626 52.3948 90.9059 52.4171 91.0397 52.4685 C 91.1736 52.52 91.295 52.5992 91.396 52.7011 C 91.6003 52.946 91.7016 53.2605 91.6787 53.5786 C 91.6787 53.6159 91.6787 53.6578 91.6787 53.7028 C 91.6787 53.7479 91.6786 53.7867 91.6709 53.8224 L 90.1985 53.8224 C 90.2054 53.8848 90.2258 53.9448 90.2582 53.9985 C 90.2907 54.0521 90.3344 54.098 90.3864 54.1331 C 90.5184 54.2182 90.6738 54.2595 90.8306 54.2511 C 90.9479 54.2512 91.0649 54.2403 91.1801 54.2185 C 91.2766 54.2026 91.371 54.1755 91.4612 54.1377 L 91.5482 54.6642 C 91.504 54.6864 91.4577 54.7041 91.41 54.717 C 91.3461 54.7356 91.2813 54.7507 91.2158 54.7621 C 91.1444 54.7755 91.0683 54.7864 90.9875 54.7947 C 90.9066 54.804 90.8251 54.8086 90.7437 54.8087 C 90.5599 54.8123 90.377 54.7812 90.2047 54.717 C 90.062 54.6625 89.9331 54.5771 89.8273 54.467 C 89.7252 54.3599 89.6492 54.2308 89.6052 54.0896 C 89.5527 53.9408 89.5244 53.7845 89.5213 53.6267 Z M 91.0465 53.3782 C 91.0432 53.3254 91.0333 53.2733 91.017 53.2229 C 91.0018 53.1721 90.9771 53.1246 90.944 53.0831 C 90.9086 53.0419 90.8653 53.0081 90.8167 52.9837 C 90.7576 52.9556 90.6926 52.9423 90.6272 52.9449 C 90.5633 52.9439 90.4998 52.9561 90.4408 52.9806 C 90.3903 53.0034 90.3457 53.0374 90.3103 53.08 C 90.2742 53.1213 90.2468 53.1693 90.2296 53.2214 C 90.2113 53.2719 90.1973 53.3238 90.1876 53.3767 L 91.0465 53.3782 Z" stroke-linecap="round" />
</g>
		<g transform="matrix(1 0 0 1 24.16 22.09)"  >
<path style="stroke: none; stroke-width: 1; stroke-dasharray: none; stroke-linecap: butt; stroke-dashoffset: 0; stroke-linejoin: miter; stroke-miterlimit: 4; fill: rgb(85,163,1); fill-rule: nonzero; opacity: 1;" vector-effect="non-scaling-stroke"  transform=" translate(-93.16, -53.59)" d="M 92.1741 52.5489 C 92.314 52.5101 92.4561 52.48 92.5997 52.4588 C 92.7815 52.4302 92.9654 52.4162 93.1495 52.4168 C 93.3143 52.4125 93.4785 52.4383 93.634 52.493 C 93.7546 52.5368 93.8616 52.6112 93.9447 52.7088 C 94.0194 52.8068 94.0723 52.9196 94.1 53.0397 C 94.1323 53.1797 94.148 53.3231 94.1466 53.4668 L 94.1466 54.7605 L 93.4989 54.7605 L 93.4989 53.546 C 93.5109 53.3931 93.4819 53.2398 93.415 53.1018 C 93.3797 53.0542 93.3322 53.0168 93.2776 52.9936 C 93.223 52.9704 93.1633 52.9622 93.1044 52.9698 C 93.0578 52.9698 93.0097 52.9698 92.9569 52.9775 C 92.9041 52.9853 92.8575 52.9868 92.8171 52.9915 L 92.8171 54.7543 L 92.1694 54.7543 L 92.1741 52.5489 Z" stroke-linecap="round" />
</g>
		<g transform="matrix(1 0 0 1 26.48 21.8)"  >
<path style="stroke: none; stroke-width: 1; stroke-dasharray: none; stroke-linecap: butt; stroke-dashoffset: 0; stroke-linejoin: miter; stroke-miterlimit: 4; fill: rgb(85,163,1); fill-rule: nonzero; opacity: 1;" vector-effect="non-scaling-stroke"  transform=" translate(-95.48, -53.3)" d="M 94.7168 51.8934 L 95.3645 51.7894 L 95.3645 52.4634 L 96.1411 52.4634 L 96.1411 53.0039 L 95.3645 53.0039 L 95.3645 53.8084 C 95.3594 53.9222 95.3846 54.0353 95.4375 54.1362 C 95.4706 54.1801 95.5148 54.2145 95.5655 54.2358 C 95.6163 54.2571 95.6718 54.2645 95.7264 54.2573 C 95.7988 54.2573 95.8711 54.2505 95.9423 54.2371 C 96.0112 54.2259 96.0789 54.2077 96.1442 54.1827 L 96.2358 54.6891 C 96.1509 54.7227 96.0637 54.7502 95.9749 54.7714 C 95.8591 54.7965 95.7408 54.8079 95.6223 54.8056 C 95.4725 54.8106 95.3232 54.7863 95.1828 54.7341 C 95.0743 54.6918 94.9782 54.6229 94.9032 54.5338 C 94.8311 54.4429 94.7812 54.3366 94.7572 54.2231 C 94.7295 54.0898 94.7159 53.9539 94.7168 53.8178 L 94.7168 51.8934 Z" stroke-linecap="round" />
</g>
		<g transform="matrix(1 0 0 1 28.56 22.11)"  >
<path style="stroke: none; stroke-width: 1; stroke-dasharray: none; stroke-linecap: butt; stroke-dashoffset: 0; stroke-linejoin: miter; stroke-miterlimit: 4; fill: rgb(85,163,1); fill-rule: nonzero; opacity: 1;" vector-effect="non-scaling-stroke"  transform=" translate(-97.56, -53.61)" d="M 96.475 53.6268 C 96.4708 53.4442 96.5031 53.2626 96.5697 53.0925 C 96.6253 52.9505 96.7087 52.8212 96.8151 52.712 C 96.9147 52.6112 97.0343 52.5324 97.1661 52.4806 C 97.2957 52.4295 97.4337 52.4031 97.573 52.4029 C 97.7162 52.3947 97.8595 52.417 97.9934 52.4684 C 98.1273 52.5199 98.2487 52.5992 98.3496 52.7011 C 98.5539 52.946 98.6552 53.2606 98.6323 53.5786 C 98.6323 53.6159 98.6323 53.6578 98.6323 53.7029 C 98.6323 53.7479 98.6323 53.7868 98.6245 53.8225 L 97.1413 53.8225 C 97.1481 53.8848 97.1685 53.9449 97.201 53.9985 C 97.2334 54.0521 97.2772 54.0981 97.3292 54.1331 C 97.4617 54.2214 97.619 54.2649 97.778 54.2573 C 97.8953 54.2575 98.0123 54.2466 98.1275 54.2247 C 98.224 54.2088 98.3184 54.1817 98.4086 54.144 L 98.4956 54.6705 C 98.4514 54.6927 98.4051 54.7103 98.3574 54.7233 C 98.2935 54.7419 98.2287 54.7569 98.1632 54.7683 C 98.0918 54.7818 98.0157 54.7927 97.9349 54.8009 C 97.854 54.8102 97.7725 54.8149 97.6911 54.8149 C 97.5073 54.8185 97.3244 54.7875 97.1521 54.7233 C 97.0094 54.6688 96.8805 54.5834 96.7747 54.4732 C 96.6726 54.3662 96.5966 54.237 96.5526 54.0958 C 96.5016 53.9447 96.4753 53.7863 96.475 53.6268 Z M 98.0001 53.3783 C 97.9969 53.3255 97.9869 53.2733 97.9706 53.223 C 97.9555 53.1721 97.9307 53.1247 97.8976 53.0832 C 97.8622 53.0419 97.8189 53.0081 97.7703 52.9838 C 97.7112 52.9557 97.6462 52.9424 97.5808 52.9449 C 97.5169 52.9439 97.4534 52.9561 97.3944 52.9807 C 97.344 53.0035 97.2993 53.0375 97.264 53.0801 C 97.2279 53.1213 97.2004 53.1694 97.1832 53.2214 C 97.1649 53.2719 97.1509 53.3239 97.1413 53.3767 L 98.0001 53.3783 Z" stroke-linecap="round" />
</g>
		<g transform="matrix(1 0 0 1 30.88 22.08)"  >
<path style="stroke: none; stroke-width: 1; stroke-dasharray: none; stroke-linecap: butt; stroke-dashoffset: 0; stroke-linejoin: miter; stroke-miterlimit: 4; fill: rgb(85,163,1); fill-rule: nonzero; opacity: 1;" vector-effect="non-scaling-stroke"  transform=" translate(-99.88, -53.58)" d="M 100.507 53.0381 C 100.45 53.0241 100.381 53.0086 100.304 52.9931 C 100.22 52.9758 100.136 52.9675 100.05 52.9682 C 100.002 52.9693 99.9529 52.9729 99.9045 52.9791 C 99.861 52.9841 99.8179 52.9924 99.7756 53.0039 L 99.7756 54.7543 L 99.1279 54.7543 L 99.1279 52.5799 C 99.2628 52.5333 99.4002 52.4944 99.5395 52.4634 C 99.713 52.4258 99.8901 52.4075 100.068 52.4091 C 100.103 52.4091 100.145 52.4091 100.193 52.4091 C 100.242 52.4091 100.293 52.42 100.349 52.4277 C 100.405 52.4355 100.447 52.4433 100.504 52.4526 C 100.547 52.4614 100.589 52.4739 100.63 52.4898 L 100.507 53.0381 Z" stroke-linecap="round" />
</g>
		<g transform="matrix(1 0 0 1 17.43 -15.59)"  >
<path style="stroke: none; stroke-width: 1; stroke-dasharray: none; stroke-linecap: butt; stroke-dashoffset: 0; stroke-linejoin: miter; stroke-miterlimit: 4; fill: rgb(85,163,1); fill-rule: nonzero; opacity: 1;" vector-effect="non-scaling-stroke"  transform=" translate(-86.43, -15.91)" d="M 85.5811 5.64417 C 85.5811 5.64417 81.5973 10.0566 80.8735 14.2905 C 80.1498 18.5243 83.3135 23.5099 88.6019 26.1735 C 88.6019 26.1735 93.252 21.3588 91.8185 16.2459 C 90.3849 11.1329 85.3341 11.5834 85.5811 5.64417 Z" stroke-linecap="round" />
</g>
		<g transform="matrix(1 0 0 1 18.97 -12.02)"  >
<path style="stroke: none; stroke-width: 1; stroke-dasharray: none; stroke-linecap: butt; stroke-dashoffset: 0; stroke-linejoin: miter; stroke-miterlimit: 4; fill: rgb(255,255,255); fill-rule: nonzero; opacity: 1;" vector-effect="non-scaling-stroke"  transform=" translate(-87.97, -19.48)" d="M 88.7697 24.9636 C 88.8509 24.0171 88.8545 23.0654 88.7805 22.1183 C 88.7133 21.1854 88.5799 20.2584 88.3814 19.3444 C 88.3379 19.1161 88.2696 18.8909 88.2168 18.6641 L 88.1344 18.324 L 88.0335 17.9885 C 87.9667 17.7633 87.8984 17.5396 87.8347 17.3129 C 87.771 17.0861 87.6794 16.8718 87.6002 16.6481 L 87.4868 16.3127 C 87.448 16.2008 87.3983 16.0952 87.3563 15.9834 C 87.2678 15.7644 87.1824 15.5439 87.097 15.3202 C 87.0115 15.0965 86.9059 14.8838 86.8158 14.6601 C 86.7258 14.4365 86.6295 14.2175 86.5425 13.9876 C 86.6978 14.1709 86.8531 14.3604 87.0084 14.5514 C 87.0845 14.6461 87.156 14.7455 87.2305 14.8418 C 87.3055 14.9381 87.3755 15.0382 87.4402 15.1416 C 87.5691 15.3466 87.698 15.5547 87.8223 15.7628 C 87.8859 15.8669 87.9512 15.971 88.0071 16.0735 L 88.1624 16.4027 C 88.2696 16.6217 88.3736 16.8438 88.473 17.0659 C 88.5724 17.288 88.6454 17.5319 88.7308 17.7555 C 88.7743 17.8704 88.8147 17.9869 88.8535 18.1034 L 88.9545 18.4575 C 89.0151 18.6952 89.0881 18.9235 89.1362 19.172 C 89.3491 20.1351 89.4347 21.122 89.3909 22.1074 C 89.3621 23.0897 89.1515 24.0581 88.7697 24.9636 Z" stroke-linecap="round" />
</g>
		<g transform="matrix(1 0 0 1 32.65 -2.78)"  >
<path style="stroke: none; stroke-width: 1; stroke-dasharray: none; stroke-linecap: butt; stroke-dashoffset: 0; stroke-linejoin: miter; stroke-miterlimit: 4; fill: rgb(85,163,1); fill-rule: nonzero; opacity: 1;" vector-effect="non-scaling-stroke"  transform=" translate(-101.65, -28.72)" d="M 114.16 22.3916 C 114.16 22.3916 111.739 29.6913 107.435 33.2076 C 103.131 36.7239 95.5038 36.3434 89.1328 32.094 C 89.1328 32.094 91.5774 23.791 98.2497 22.1384 C 104.922 20.4859 107.634 26.4562 114.16 22.3916 Z" stroke-linecap="round" />
</g>
		<g transform="matrix(1 0 0 1 28.17 -2.75)"  >
<path style="stroke: none; stroke-width: 1; stroke-dasharray: none; stroke-linecap: butt; stroke-dashoffset: 0; stroke-linejoin: miter; stroke-miterlimit: 4; fill: rgb(255,255,255); fill-rule: nonzero; opacity: 1;" vector-effect="non-scaling-stroke"  transform=" translate(-97.17, -28.75)" d="M 90.2837 31.1156 C 91.0603 30.1294 92.0714 29.3388 93.143 28.6787 L 93.5484 28.4302 C 93.6835 28.3479 93.8264 28.2749 93.9662 28.2066 C 94.2457 28.0621 94.5238 27.9099 94.8173 27.7903 C 95.1108 27.6707 95.3966 27.5356 95.6933 27.4238 L 96.591 27.1132 C 96.7385 27.0588 96.8938 27.0262 97.046 26.9843 L 97.512 26.8647 L 97.9779 26.7482 C 98.1332 26.7171 98.2886 26.6907 98.4439 26.6628 C 98.7545 26.61 99.0651 26.5556 99.3757 26.5074 C 99.6864 26.4593 99.997 26.4515 100.318 26.4282 L 100.784 26.3925 C 100.94 26.3925 101.095 26.3925 101.25 26.3925 L 102.192 26.4065 C 102.269 26.4065 102.347 26.4065 102.426 26.4158 L 102.661 26.4407 C 102.816 26.4577 102.971 26.4717 103.127 26.4919 C 103.437 26.5292 103.748 26.568 104.058 26.6162 C 103.748 26.655 103.437 26.6814 103.127 26.7078 C 102.971 26.7218 102.816 26.7295 102.661 26.7404 L 102.431 26.7575 C 102.353 26.7575 102.275 26.7777 102.201 26.787 L 101.285 26.9004 C 101.129 26.9221 100.974 26.9299 100.828 26.9548 L 100.376 27.034 C 100.075 27.0878 99.7733 27.1396 99.472 27.1893 L 98.5805 27.3912 L 98.1348 27.4875 L 97.6968 27.6133 C 97.4048 27.6972 97.1082 27.7686 96.8193 27.8618 C 95.6582 28.2241 94.5268 28.6753 93.435 29.2115 C 92.3282 29.7478 91.2733 30.3853 90.2837 31.1156 Z" stroke-linecap="round" />
</g>
</g>
</g>
</svg>