<?xml version="1.0" encoding="utf-8"?>
<!-- Generator: Adobe Illustrator 25.4.1, SVG Export Plug-In . SVG Version: 6.00 Build 0)  -->
<svg version="1.1" id="Layer_1" xmlns="http://www.w3.org/2000/svg" xmlns:xlink="http://www.w3.org/1999/xlink" x="0px" y="0px"
	 viewBox="0 0 1080 320.6" style="enable-background:new 0 0 1080 320.6;" xml:space="preserve">
<style type="text/css">
	.st0{display:none;fill:#FFFFFF;}
	.st1{fill:#DD71C6;}
	.st2{fill:none;stroke:#DD71C6;stroke-width:1.12;stroke-linecap:round;stroke-linejoin:round;stroke-miterlimit:2.24;}
	.st3{opacity:0.15;fill:none;stroke:#FFFFFF;stroke-width:21;stroke-miterlimit:2.24;enable-background:new    ;}
	.st4{opacity:0.15;fill:none;stroke:#FFFFFF;stroke-width:19;stroke-miterlimit:2.24;enable-background:new    ;}
</style>
<desc>Created with Fabric.js 5.2.4</desc>
<g id="_x30_2010b82-b851-4de8-ac03-8ebc33f9535d" transform="matrix(1 0 0 1 540 540)">
	<rect x="-540" y="-917.4" vector-effect="non-scaling-stroke" class="st0" width="1080" height="1080"/>
</g>
<g id="_x30_c896791-fec6-49a5-a853-c1a20db21b05" transform="matrix(1 0 0 1 540 540)">
</g>
<g transform="matrix(0.56 0 0 0.56 540 537.75)">
	<rect x="-964.3" y="-960.3" vector-effect="non-scaling-stroke" class="st1" width="1928.6" height="572.5"/>
</g>
<g transform="matrix(0.56 0 0 0.56 623.53 455.34)">
	<path vector-effect="non-scaling-stroke" class="st2" d="M17.6-675c0,2.6-0.6,5.1-1.8,7.4c-1.4,2.8-3.5,5.1-6.1,6.7
		c-2.6,1.6-5.7,2.5-8.8,2.5c-2.6,0-5.1-0.6-7.4-1.8l-11.2,3.7l3.7-11.2c-1.2-2.3-1.8-4.9-1.8-7.4c0-3.1,0.9-6.1,2.5-8.7
		c1.6-2.6,4-4.8,6.7-6.1c2.3-1.2,4.8-1.8,7.4-1.8h1c4.1,0.2,7.9,1.9,10.8,4.8s4.6,6.7,4.8,10.8V-675z"/>
</g>
<g transform="matrix(0.56 0 0 0.56 1104.75 495)">
	<circle vector-effect="non-scaling-stroke" class="st3" cx="0" cy="-674" r="140"/>
</g>
<g transform="matrix(0.56 0 0 0.56 118.41 517.22)">
	<circle vector-effect="non-scaling-stroke" class="st4" cx="0" cy="-674" r="78.5"/>
</g>
</svg>
