<?xml version="1.0" encoding="utf-8"?>
<!-- Generator: Adobe Illustrator 25.4.1, SVG Export Plug-In . SVG Version: 6.00 Build 0)  -->
<svg version="1.1" id="Layer_1" xmlns="http://www.w3.org/2000/svg" xmlns:xlink="http://www.w3.org/1999/xlink" x="0px" y="0px"
	 viewBox="0 0 324.8 324.8" style="enable-background:new 0 0 324.8 324.8;" xml:space="preserve">
<style type="text/css">
	.st0{display:none;fill:#FFFFFF;}
	.st1{fill:#73C3F4;}
	.st2{fill:#4D85B0;}
</style>
<desc>Created with Fabric.js 5.2.4</desc>
<g id="_x34_ae31409-0b25-48d1-b9ea-e772a6148031" transform="matrix(1 0 0 1 540 540)">
	<rect x="-586.1" y="-833.3" vector-effect="non-scaling-stroke" class="st0" width="1080" height="1080"/>
</g>
<g id="a001afa3-93b9-4e62-8275-f5a9a9e7dacb" transform="matrix(1 0 0 1 540 540)">
</g>
<g transform="matrix(7.83 0 0 7.83 540 540)">
	<g>
		<g transform="matrix(1 0 0 1 -42.33 -10.76)">
			<circle vector-effect="non-scaling-stroke" class="st1" cx="-5.9" cy="-37.5" r="20.7"/>
		</g>
		<g transform="matrix(1 0 0 1 -38.72 4.86)">
			<path vector-effect="non-scaling-stroke" class="st2" d="M-13.1-51c0.1-0.2,0.1-0.4,0.1-0.7c0,0,0.7,0.7,1.1,2
				c0.4,1.3,0.8,1.8,1.4,2.4c0.6,0.6,2.5,1.8,4.5,4C-4-41-1.5-38-1.4-37.9c-0.1-0.1-2.1-4.2-3.2-5.7c-1.1-1.5-1.9-2.8-3-3.3
				c-1.1-0.5-1.9-1.8-1.9-3.7c0-2-1-2.8-1.7-3.2c-0.6-0.4-2.6-2.1-1.6-4.8c1-2.7,6.3-4.6,7.7-4.9c1.3-0.4,4.4-1.4,4.4-1.4
				s-3.1,0.1-5,0.8c-1.9,0.6-4,1.2-4,1.2c0,0,0.6-0.7,0.5-1.4c-0.1-0.3-0.2-0.6-0.5-0.8c-0.3-0.2-0.6-0.3-0.9-0.2
				c-0.5,0.1-0.6,0.2-0.7,0.2c0.1-0.1,1.1-1.1,1.7-1.5c0.6-0.4,1.4-1.1,1.6-1.6c0,0-2.5,1.4-3.5,2c-1,0.6-2.2,1.5-3.4,3.1
				c-1.2,1.6-1.4,3.2-1.2,4.8c0.2,1.6,0.9,2.6,1.2,3.2c0.3,0.6,0.6,1.6,0.2,2.1c-0.4,0.5-1.7,2.2-1.8,3.6c-0.1,1.4,0.5,2.5,1.2,3.4
				c0.7,0.9,2.2,3.7,3.2,6.4c1.1,2.7,1.7,3.2,1.7,3.2s-0.9-5.7-1.5-7.3c-0.7-1.6-1.6-3.4-1.8-3.6c-0.2-0.2-0.8-0.9-0.4-1.7
				C-13.6-50-13.2-50.5-13.1-51z M-13.5-61.7c0,0,0-1.2,0.7-1.8c0,0,0.2,1,1.1,1.2C-11.7-62.3-12.8-61.7-13.5-61.7z"/>
		</g>
	</g>
</g>
</svg>
