<?xml version="1.0" encoding="utf-8"?>
<!-- Generator: Adobe Illustrator 25.4.1, SVG Export Plug-In . SVG Version: 6.00 Build 0)  -->
<svg version="1.1" id="Layer_1" xmlns="http://www.w3.org/2000/svg" xmlns:xlink="http://www.w3.org/1999/xlink" x="0px" y="0px"
	 viewBox="0 0 30 30" style="enable-background:new 0 0 30 30;" xml:space="preserve">
<style type="text/css">
	.st0{fill:#DD71C6;}
	.st1{fill:#FFFFFF;}
</style>
<g id="Group_131">
	<g id="Group_96">
		<circle id="Ellipse_8" class="st0" cx="66" cy="15" r="15"/>
		<g id="Group">
			<g id="Group_2">
				<path id="Vector" class="st1" d="M73,10.3c-0.5,0.2-1.1,0.4-1.7,0.5c0.6-0.4,1-0.9,1.3-1.6c-0.6,0.3-1.2,0.6-1.8,0.7
					C70.3,9.3,69.5,9,68.7,9c-1.6,0-2.9,1.3-2.9,2.9c0,0.2,0,0.4,0.1,0.7c-2.4-0.1-4.5-1.3-5.9-3c-0.2,0.4-0.4,0.9-0.4,1.5
					c0,1,0.5,1.9,1.3,2.4c-0.5,0-0.9-0.1-1.3-0.4c0,0,0,0,0,0c0,1.4,1,2.6,2.3,2.8c-0.2,0.1-0.5,0.1-0.8,0.1c-0.2,0-0.4,0-0.5,0
					c0.4,1.1,1.4,2,2.7,2c-1,0.8-2.2,1.2-3.6,1.2c-0.2,0-0.5,0-0.7,0c1.3,0.8,2.8,1.3,4.4,1.3c5.3,0,8.2-4.4,8.2-8.2
					c0-0.1,0-0.2,0-0.4C72.1,11.4,72.6,10.9,73,10.3z"/>
			</g>
		</g>
	</g>
	<g id="Group_97">
		<circle id="Ellipse_9" class="st0" cx="117" cy="15" r="15"/>
		<path id="Vector_2" class="st1" d="M115.7,22v-6.6H114v-2.4h1.7v-2c0-1.6,1-3,3.3-3c0.9,0,1.6,0.1,1.6,0.1l-0.1,2.2
			c0,0-0.7,0-1.5,0c-0.8,0-1,0.4-1,1v1.7h2.5l-0.1,2.4h-2.4V22H115.7z"/>
	</g>
	<g id="Group_98">
		<circle id="Ellipse_7" class="st0" cx="15" cy="15" r="15"/>
		<path id="Vector_3" class="st1" d="M15,12.7c-1.3,0-2.3,1-2.3,2.3s1,2.3,2.3,2.3c1.3,0,2.3-1,2.3-2.3S16.3,12.7,15,12.7z M22,15
			c0-1,0-1.9,0-2.9c-0.1-1.1-0.3-2.1-1.1-2.9C20,8.4,19,8.1,17.9,8C16.9,8,16,8,15,8c-1,0-1.9,0-2.9,0C11,8.1,10,8.4,9.2,9.2
			C8.4,10,8.1,11,8,12.1C8,13.1,8,14,8,15s0,1.9,0,2.9C8.1,19,8.4,20,9.2,20.8c0.8,0.8,1.8,1.1,2.9,1.1c1,0.1,1.9,0,2.9,0
			c1,0,1.9,0,2.9,0c1.1-0.1,2.1-0.3,2.9-1.1c0.8-0.8,1.1-1.8,1.1-2.9C22,16.9,22,16,22,15z M15,18.6c-2,0-3.6-1.6-3.6-3.6
			s1.6-3.6,3.6-3.6c2,0,3.6,1.6,3.6,3.6S17,18.6,15,18.6z M18.7,12.1c-0.5,0-0.8-0.4-0.8-0.8c0-0.5,0.4-0.8,0.8-0.8
			c0.5,0,0.8,0.4,0.8,0.8c0,0.1,0,0.2-0.1,0.3c0,0.1-0.1,0.2-0.2,0.3c-0.1,0.1-0.2,0.1-0.3,0.2C19,12.1,18.8,12.1,18.7,12.1z"/>
	</g>
</g>
</svg>
