<?xml version="1.0" encoding="utf-8"?>
<!-- Generator: Adobe Illustrator 25.4.1, SVG Export Plug-In . SVG Version: 6.00 Build 0)  -->
<svg version="1.1" id="Layer_1" xmlns="http://www.w3.org/2000/svg" xmlns:xlink="http://www.w3.org/1999/xlink" x="0px" y="0px"
	 viewBox="0 0 18.6 26.6" style="enable-background:new 0 0 18.6 26.6;" xml:space="preserve">
<style type="text/css">
	.st0{fill:#DD71C6;}
</style>
<g id="Vector">
	<path class="st0" d="M16.3,10.3c0-0.9-0.2-1.8-0.5-2.7c-0.4-0.8-0.9-1.6-1.5-2.3c-0.7-0.7-1.4-1.2-2.3-1.5
		c-0.8-0.4-1.8-0.5-2.7-0.5S7.5,3.5,6.6,3.8C5.8,4.2,5,4.7,4.3,5.3S3.2,6.7,2.8,7.6c-0.4,0.8-0.5,1.8-0.5,2.7c0,1.4,0.4,2.7,1.1,3.8
		h0c2.4,3.7,5.9,9.2,5.9,9.2l5.9-9.2h0C15.9,12.9,16.3,11.6,16.3,10.3z M9.3,13.3c-0.8,0-1.6-0.3-2.1-0.9c-0.6-0.6-0.9-1.3-0.9-2.1
		c0-0.8,0.3-1.6,0.9-2.1c0.6-0.6,1.3-0.9,2.1-0.9s1.6,0.3,2.1,0.9s0.9,1.3,0.9,2.1c0,0.8-0.3,1.6-0.9,2.1
		C10.9,13,10.1,13.3,9.3,13.3z"/>
</g>
</svg>
