<?xml version="1.0" encoding="UTF-8" standalone="no" ?>
<!DOCTYPE svg PUBLIC "-//W3C//DTD SVG 1.1//EN" "http://www.w3.org/Graphics/SVG/1.1/DTD/svg11.dtd">
<svg xmlns="http://www.w3.org/2000/svg" xmlns:xlink="http://www.w3.org/1999/xlink" version="1.1" width="1080" height="1080" viewBox="0 0 1080 1080" xml:space="preserve">
<desc>Created with Fabric.js 5.2.4</desc>
<defs>
</defs>
<g transform="matrix(1 0 0 1 540 540)" id="4b524934-8159-4485-a971-afb652a3f829"  >
<rect style="stroke: none; stroke-width: 1; stroke-dasharray: none; stroke-linecap: butt; stroke-dashoffset: 0; stroke-linejoin: miter; stroke-miterlimit: 4; fill: rgb(255,255,255); fill-rule: nonzero; opacity: 1; visibility: hidden;" vector-effect="non-scaling-stroke"  x="-540" y="-540" rx="0" ry="0" width="1080" height="1080" />
</g>
<g transform="matrix(1 0 0 1 540 540)" id="2f704a61-6774-4a9d-a0b9-f9b46d73e07f"  >
</g>
<g transform="matrix(43.2 0 0 43.2 540 540)"  >
<g style=""   >
		<g transform="matrix(1 0 0 1 0 -0.21)"  >
<path style="stroke: none; stroke-width: 1; stroke-dasharray: none; stroke-linecap: butt; stroke-dashoffset: 0; stroke-linejoin: miter; stroke-miterlimit: 4; fill: rgb(221,113,198); fill-rule: nonzero; opacity: 1;" vector-effect="non-scaling-stroke"  transform=" translate(-12.5, -8.79)" d="M 24.0234 7.8125 L 0.976562 7.8125 C 0.437207 7.8125 0 8.24971 0 8.78906 C 0 9.32842 0.437207 9.76562 0.976562 9.76562 L 24.0234 9.76562 C 24.5628 9.76562 25 9.32842 25 8.78906 C 25 8.24971 24.5628 7.8125 24.0234 7.8125 Z" stroke-linecap="round" />
</g>
		<g transform="matrix(1 0 0 1 0 -8.02)"  >
<path style="stroke: none; stroke-width: 1; stroke-dasharray: none; stroke-linecap: butt; stroke-dashoffset: 0; stroke-linejoin: miter; stroke-miterlimit: 4; fill: rgb(221,113,198); fill-rule: nonzero; opacity: 1;" vector-effect="non-scaling-stroke"  transform=" translate(-12.5, -0.98)" d="M 24.0234 0 L 0.976562 0 C 0.437207 0 0 0.437207 0 0.976562 C 0 1.51592 0.437207 1.95312 0.976562 1.95312 L 24.0234 1.95312 C 24.5628 1.95312 25 1.51592 25 0.976562 C 25 0.437207 24.5628 0 24.0234 0 Z" stroke-linecap="round" />
</g>
		<g transform="matrix(1 0 0 1 0 7.6)"  >
<path style="stroke: none; stroke-width: 1; stroke-dasharray: none; stroke-linecap: butt; stroke-dashoffset: 0; stroke-linejoin: miter; stroke-miterlimit: 4; fill: rgb(221,113,198); fill-rule: nonzero; opacity: 1;" vector-effect="non-scaling-stroke"  transform=" translate(-12.5, -16.6)" d="M 24.0234 15.625 L 0.976562 15.625 C 0.437207 15.625 0 16.0622 0 16.6016 C 0 17.1409 0.437207 17.5781 0.976562 17.5781 L 24.0234 17.5781 C 24.5628 17.5781 25 17.1409 25 16.6016 C 25 16.0622 24.5628 15.625 24.0234 15.625 Z" stroke-linecap="round" />
</g>
</g>
</g>
</svg>